<svg version="1.1" xmlns="http://www.w3.org/2000/svg" xmlns:xlink="http://www.w3.org/1999/xlink" xmlns:i="http://ns.adobe.com/AdobeIllustrator/10.0/" xmlns:sketch="http://www.bohemiancoding.com/sketch/ns" height="100%" width="100%" x="0px" y="0px" viewBox="0 0 640 480" xml:space="preserve" preserveAspectRatio="xMidYMid meet" class=""><rect x="0px" y="0px" width="100%" height="100%" fill="#163f4f"/><g class="logo-container-box logoContainerBox" transform="scale(1) translate(-0.0000152587890625,0.0000152587890625)"><g class="container_1" transform="scale(1) translate(39.99993133544922,34.96437072753906)"  fill="#25e874"><g>
	<path class="st0" d="M468.9,179.9c-0.1-0.4-0.2-0.8-0.2-1.3l0.1,2C468.8,180.1,468.8,179.9,468.9,179.9z"/>
	<path class="st0" d="M452.4,300.3c0,0.1-0.1,0.1-0.1,0.2c0.2-0.2,0.4-0.4,0.4-0.4C452.7,299.8,452.7,299.8,452.4,300.3z"/>
	<path class="st0" d="M463.7,271.1c0.2-0.5,0.5-1,0.7-1.4C464.3,269.7,464,270.3,463.7,271.1z"/>
	<path class="st0" d="M469.9,197.1c0-1.4,0.1-2.7,0.1-4.1C469.8,193.5,469.7,195,469.9,197.1z"/>
	<path class="st0" d="M463.7,271.1c-0.6,1.2-1.1,2.5-1.6,3.9C462.6,274,463.2,272.3,463.7,271.1z"/>
	<path class="st0" d="M419.1,345.2l-2.2,2.1c0.7-0.6,1.4-1.2,2.1-1.9C419,345.3,419.1,345.2,419.1,345.2z"/>
	<path class="st0" d="M372.6,366.6c0.1-0.1,0-0.1-0.5,0.1C372.2,366.7,372.4,366.7,372.6,366.6z"/>
	<path class="st0" d="M409,354.4c0,0,2-1.7,4-3.5c2-1.7,3.9-3.6,3.9-3.6c-0.7,0.6-1.4,1.1-1.9,1.5c-0.6,0.4-1,0.7-1.3,0.8
		c-0.4,0.3-0.5,0.1,0.1-0.6C412.1,350.8,408.8,354,409,354.4z"/>
	<path class="st0" d="M139.1,320.1L139.1,320.1c0,0-0.2-0.2-0.3-0.3C138.9,319.8,139,319.9,139.1,320.1z"/>
	<path class="st0" d="M138.8,319.7c-1.8-2.2-2.8-3.3-3.3-3.9C136.5,317.2,137.7,318.5,138.8,319.7z"/>
	<path class="st0" d="M143,324.1c0.3,0.2,0.6,0.5,0.8,0.6C143.1,323.9,142.9,323.9,143,324.1z"/>
	<path class="st0" d="M139.2,320.2l1.4,2.2c0.5,0.6,0.9,1.1,1.3,1.5c0.4,0.4,0.7,0.7,0.9,0.9c0.5,0.4,0.7,0.5,0.7,0.5
		c0.1-0.1-0.3-0.8-0.5-1.2C142,323.3,140.7,321.9,139.2,320.2z"/>
	<path class="st0" d="M444.6,100.7c0.3,0.5,0.7,1,1,1.6C445.3,101.8,445,101.3,444.6,100.7z"/>
	<path class="st0" d="M174.5,354.1c0,0,0.3,0.3,0.6,0.6c0.3,0.1,0.6,0.3,0.7,0.3C176.1,355.1,175.8,355,174.5,354.1z"/>
	<path class="st0" d="M268.4,18.8c-0.5,0-0.9,0-1.3,0.1C267.6,18.8,268,18.8,268.4,18.8z"/>
	<path class="st0" d="M95.4,176.6c0,0.4-0.1,0.8-0.1,0.9C95.4,177.1,95.4,176.8,95.4,176.6z"/>
	<path class="st0" d="M445.9,304.3l1-1.6C446.4,303.4,446.1,303.9,445.9,304.3z"/>
	<path class="st0" d="M476.1,195.1c-0.1-1-0.2-1.9-0.4-2.8c-0.2-0.9-0.3-1.7-0.5-2.6c-0.3-1.8-0.6-3.7-0.9-6.1
		c-0.3-2.5-0.8-5.5-1.2-9.7c0.4,0.2,0.8,2.6,1.2,5.3c0.2,1.4,0.5,2.8,0.6,4.2c0.2,1.4,0.3,2.6,0.5,3.6c0-0.8-0.1-2-0.3-3.4
		c-0.1-1.4-0.4-3-0.6-4.5c-0.5-3.1-0.8-5.9-0.7-6.8c-1.3-5.8-2.2-8.4-3.1-10.1c-0.9-1.7-1.6-2.7-2.6-5.4c-0.1-0.6-0.3-1.1-0.4-1.6
		c-0.1-0.5-0.2-0.8-0.3-1.2c-0.2-0.7-0.3-1.1-0.3-1.4c-0.1-0.6,0-0.4,0.2,0c0.4,0.8,1.2,2.7,1.2,2.5c-0.8-2.8-3.3-6.9-3.2-9.7
		c-2-4.3-3.4-6.5-1.4,0.1c-0.8-2.4-1.9-5.3-2.9-7.8c-1.1-2.4-2-4.3-2.4-4.9c1.2,1.7,0.8,0.3,0.1-1.6c-0.4-1-0.8-2.1-1.1-3
		c-0.3-0.9-0.5-1.6-0.4-1.8c-0.8-1.8-1.8-4.1-3-6.7c-1.2-2.5-2.7-5.3-4.2-8c-3.1-5.4-6.4-10.5-9-13.2l2.1,1.2c0,0-1.3-1.9-2.6-3.8
		c-1.2-1.9-2.6-3.7-2.6-3.7c-1.8-2.9-0.4-1.4,1.7,1.3c1.6,2.2,3.6,5.1,4.9,7.2c-1.3-2-2.5-3.9-3.7-5.6c-0.4-0.6-0.7-1.1-1.1-1.7
		c-0.4-0.5-0.8-1.1-1.2-1.6c-0.8-1-1.5-2.1-2.3-3.1c-0.7-1-1.5-2-2.2-3c-0.8-1-1.6-1.9-2.4-2.9c-1.6-1.9-3.2-4-5.1-6.1
		c2,2.6,0.5,1.3,1.3,2.7c-1.3-1.4-2.9-3-4.5-4.7c-1.5-1.7-3-3.5-4.5-4.8c-0.2-0.4-0.2-0.6,0.1-0.4c0.3,0.2,1.1,0.8,2,1.8
		c-0.1-0.1-0.4-0.4-0.7-0.8c-0.5-0.5-1.2-1.2-1.9-1.8c-1.4-1.3-2.8-2.7-2.8-2.7c0.9,0-1.8-2.7,3.9,2.4l-5.2-4.9
		c-5.6-5.5,0.7-0.2,2.2,1.1c0,0-0.5-0.6-1.4-1.4c-0.8-0.9-2-1.9-3.1-2.9c-2.3-2.1-4.6-4.2-4.6-4.2c-3.6-2.6,1.6,2-5.1-3.2
		c-1.1-1-2.2-1.9-3.3-2.9c-1.2-1-2.4-1.9-3.7-2.9s-2.6-1.9-3.9-2.9s-2.7-1.9-4.1-2.8c-1.4-0.9-2.8-1.9-4.2-2.8
		c-1.4-0.9-2.9-1.7-4.4-2.6c-1.5-0.9-2.9-1.7-4.3-2.6c-1.5-0.8-2.9-1.6-4.4-2.4c0,0,2,1.2,3.9,2.4c1,0.6,1.9,1.3,2.6,1.8
		s1.2,0.8,1.2,0.8c-1.7-1-2.9-1.7-3.8-2.1c-0.9-0.4-1.5-0.6-2-0.6c-0.9-0.1-1.3,0.1-2.5-0.3c-6.2-3.6-15.2-7.3-20.7-9.8
		c3.3,1.1,4.4,1.1,3.9,0.6S350,22,347,20.7c-3.5-1.2-5.9-2-7.7-2.5c-1.8-0.4-3-0.6-4-0.8c-1-0.1-1.8-0.2-2.8-0.3
		c-1-0.1-2.3-0.4-4.3-0.8c6.5,0.3-9.8-2.9-8.3-3.2c-9.1-1.9-18.5-3.1-27.9-3.7c-9.4-0.5-18.9-0.4-28.6,0.2c0.4,0.1,5.9,0.1,2.6,0.4
		c-1.8,0.1-3.3,0.3-4.6,0.4c-1.3,0.1-2.4,0.1-3.4,0.2c-1.8,0-3-0.1-3.4-0.1c-2.3,0.3-4.3,0.7-6.1,1c-1.8,0.3-3.4,0.6-4.8,1
		c-2.8,0.7-4.7,1.3-6.2,1.8c3.9-0.9,4.3-0.8,3.6-0.3c-2.2,0.5-3.7,0.7-4.9,0.9c-1.2,0.2-2,0.3-2.7,0.5c-1.6,0.3-3.1,0.5-7.2,1.9
		c-2.4-0.2,9.2-2.6,8.3-3.1c-7.9,1.8-12.6,3.5-18.1,5.6c-0.7,0,0.6-0.5,1.5-0.8c0.9-0.3,1.5-0.5-0.7,0c-2.9,1.1-6,2.2-9.1,3.5
		c-3,1.3-6.1,2.6-9,4c-2.9,1.5-5.7,2.8-8.3,4.2c-2.5,1.4-4.9,2.7-6.9,3.9c0,0-0.6,0.2-1.3,0.3c-0.6,0.2-1.2,0.4-1.2,0.4
		c-2.6,1.5-4.7,2.8-6.4,4c-1.8,1.1-3.1,2.2-4.1,3c-2.8,1.6-0.8,0.1,1.7-1.7c-3.4,2.2-7.1,4.7-10.2,7.2c-1.6,1.2-3.1,2.4-4.4,3.5
		c-1.3,1.1-2.4,2.1-3.3,2.8c0.3-0.7,3.5-3,4.4-3.9c-8.1,6-16.7,15.4-21.7,19.6c0.5-0.7,1.2-1.4,1.8-2c-1.3,1.3-2.6,2.6-3.9,3.9
		c-1.2,1.4-2.4,2.7-3.6,4c-1.2,1.4-2.4,2.6-3.5,4c-1.1,1.4-2.2,2.8-3.3,4.2c-4.4,5.6-8.5,11.6-12.8,18.4c-8.1,12.4-1.8,4.5-8.7,17.2
		c-0.7-0.3-2.9,4.2-5.1,9.4c-1,2.7-2.1,5.5-3,8.1c-0.8,2.6-1.6,4.8-2.2,6.3l0.9-1.8c-0.4,1.7-1.1,3.6-1.6,5.5
		c-0.5,1.9-1.2,3.9-1.8,5.8c-0.7,1.9-1.2,3.7-1.7,5.4s-1,3.1-1.4,4.3c-0.7,2.6-1.2,5.6-1.8,8.8c-0.3,1.6-0.5,3.2-0.8,4.9
		c-0.2,1.7-0.5,3.3-0.7,5c-0.4,3.4-0.6,6.7-0.8,9.9c-0.1,3.2-0.1,6.3-0.1,9l-0.2-2.2c0,1.1,0,2.2,0,3.2s0,2,0,3c0,1.9,0,3.7,0,5.5
		c0,1.8,0.1,3.6,0.2,5.5c0.1,1,0.1,1.9,0.2,3c0.1,1,0.2,2.1,0.3,3.2c-0.1-0.2-0.6-3.5-0.4-0.1c1.4,21.5,6.9,43,15.7,62.9
		c4.4,9.9,9.8,19.4,15.7,28.5c2.9,4.6,6.2,8.8,9.4,13.2c1.7,2.1,3.4,4.2,5.1,6.2c0.8,1.1,1.7,2,2.6,3l2.7,3
		c7,7.5,14.6,14.9,23.1,21.6s17.8,12.8,27.6,18.2c9.9,5.3,20.3,9.9,31.2,13.5c10.9,3.6,22.1,6.2,33.5,7.8
		c22.8,3.2,46.1,2.3,67.8-2.4c10.9-2.4,21.3-5.7,31.2-9.7c1.2-0.5,2.5-1,3.7-1.5s2.4-1,3.6-1.6c2.4-1.1,4.7-2.3,7.1-3.4
		c2.3-1.2,4.6-2.5,6.8-3.7l1.7-0.9l1.6-1c1.1-0.7,2.2-1.3,3.2-2c0,0,0.5-0.4,1.3-1.1s1.9-1.6,3.2-2.9c2.5-2.5,5.9-5.7,8.7-9.1
		c1.4-1.7,2.9-3.3,4-4.9c1.2-1.6,2.1-3.1,2.9-4.3c2.4-2.6,2.7-4.1,1.2-3.8c-1.3,0.8,0-0.5,1-1.6c1-1.1,1.7-2-0.8,0.1l-4.3,4.5
		c0.5-0.8-1.7,0.5-2.8,1c0.4-0.2,0.7-0.5,1-0.6c0.1-0.2-0.5,0.1-1,0.4c0.3-0.4,0.8-0.9,1.5-1.6c-1,0.9-1.6,1.4-1.8,1.7
		c-0.1,0-0.1,0.1-0.2,0.1c-0.9,0.9-0.6,0.8,0,0.4c-0.9,1.6,6.9-4.1,1.9,1.1c-1.1,1.4-5.7,4.6-8,6.3c2.6-1.8,2.7-1.7,1.8-0.8
		c-0.4,0.4-1,1-1.7,1.6c-0.7,0.6-1.4,1.1-1.9,1.5c-1.7,1-3.9,2.3-5.8,3.5c-2,1.1-3.8,2.1-4.7,2.3c-0.2,0.2-1,0.7-1.9,1.3
		c-0.5,0.3-1,0.6-1.5,0.9s-1,0.5-1.5,0.8l-0.3-0.1c-4,2.4,1.5-0.5,0.6,0.2c-1.5,0.8-3.5,1.7-5.7,2.8c-1.1,0.5-2.3,1-3.5,1.5
		s-2.5,1.1-3.7,1.7c2.5-1.2,4.8-2.3,6.8-3.5s3.8-2.3,5.5-3.3c-4.5,2.1-4.3,1.7-2.7,0.4c0.8-0.6,1.9-1.4,2.9-2.1
		c0.4-0.3,0.7-0.5,1-0.8c2.7-1.5,4.6-2.8,4.9-3.2c0.2,0,2.1-1,0.6,0c1.3-0.7,2.4-1.5,3.3-2.1c0.7-0.5,1.3-0.9,1.9-1.4
		c-0.4,0.3-1.1,0.7-1.6,1c1.1-0.9,3.4-2.5,2.7-2.4c-1.1,0.8-1.2,0.9-2.7,1.9c0.5-0.6,4.5-3.3,5.6-3.8c0.6-0.3,0.1,0.2-0.5,0.7
		c-0.5,0.5-1,0.9,0,0.3c0,0,0.4-0.3,1-0.8c0.6-0.5,1.3-1.1,2.1-1.8c0.7-0.6,1.3-1.1,1.9-1.6c-1.1,0.8-2.2,1.5-1.9,1.1l-2.4,1.9V356
		c-2.1,1.6-4,2.7-5.8,3.9c-0.9,0.6-1.8,1.2-2.8,1.8c-1,0.6-2.1,1.3-3.2,2l1.9-0.8c-1.4,0.8-2.7,1.7-4,2.5c-0.7,0.4-1.3,0.8-2,1.2
		c-0.7,0.3-1.3,0.6-2,0.9c1.2-0.8,0.3-0.4,0.2-0.5c-0.6,0.4-1.3,0.8-2.1,1.2l0.5-0.4c-0.8,0.6-2.2,1.3-3.6,2
		c-0.9,0.5-1.9,0.9-2.7,1.3c-0.8,0.3-1.5,0.6-1.8,0.8l0.4-0.3c0,0,0,0,0,0c0,0,0,0,0,0c-2.2,0.9-1.9,0.9-1.5,0.8
		c-0.5,0.3-1,0.5-1.5,0.8c-1.1,0.4-0.5-0.2-2.4,0.5c-1.5,0.6-3.3,1.4-5.4,2.2c0.5-0.3,1.1-0.7,2-1.2c-2.8,0.8-4.3,1.5-5.6,2.1
		c-1.1,0.6-2,1.1-3.1,1.7c-1.7,0.6-3.4,1.1-4.8,1.5c-4,1.3-8.4,2.8-12.1,3.8c-3.6,0.9,0.2-0.5-3.5,0.6c0.3-0.3-0.2-0.3-0.6-0.3
		c-1.1,0.3-6.5,1.3-3.7,1c-2.7,0.5-5.6,1.1-8.5,1.4c-2.5,0.3-5,0.8-7.5,1c-0.1,0-0.2,0-0.3,0c1.1-0.2,1.2-0.4-0.1-0.4
		c-0.4,0.1-0.9,0.2-1.4,0.3c-0.3,0-0.4-0.1-0.4-0.2c3.4-0.6-3.1,0.2-2.5-0.2c-0.8,0-1.6,0.1-2.3,0.2c-0.8,0.1-1.4,0.1-2.2,0.2
		c-1.5,0.1-3.2,0.3-5.9,0.4c-0.1,0.2,1.8,0.2-0.7,0.4c0,0,0,0,0,0c0.1,0,0.3,0,0.4,0c1.4,0,2.5,0,1.5-0.2c1-0.2,3.4-0.4,5.8-0.5
		c1.2,0,2.4-0.1,3.4-0.2c0.7-0.1,1.3-0.1,1.8-0.1c-1.9,0.3-1.4,0.4-0.5,0.4c-0.7,0.1-1.4,0.2-2.2,0.3c-2.1,0.3-4.5,0.3-6.9,0.4
		c0.1,0.3,1.4,0.2,1.3,0.4c-0.1,0-0.2,0.1-0.2,0.1c-0.7,0.1-1.8,0.3-2.9,0.3c-0.4-0.1-0.5-0.3-1.1-0.4c-0.6-0.2-1.6-0.3-3.8-0.3
		c0.1,0,0.2-0.1,0.4-0.1c-2.3,0-3.2-0.4-4.1-0.4c0.7,0,1.7-0.1,2.4-0.1c-1.5-0.1-2.6,0-3.7,0c-1.1,0-2.2,0-3.9-0.1
		c-0.9-0.5,5.4,0.3,6.6-0.1l-2.4-0.4c-5.1-0.3-1.4,0.3-6.7-0.1l0.7-0.1c0,0-0.9,0-1.7,0c-0.9,0-1.7-0.1-1.7-0.1
		c-0.1,0.1,0.1,0.3,0.6,0.4s1.4,0.2,2.8,0.3c-1,0.2-1.6,0.2-2.6,0.1c-0.9-0.1-2.2-0.3-4.5-0.5c-1.5,0.1,1.9,0.1,2,0.4
		c0.4,0.3-2.7,0-5-0.2c-1.9-0.2-2.3-0.4-2.5-0.5c-0.2-0.1-0.1-0.2-0.8-0.4c0.4,0.1,1.2,0.2,2,0.3c0.7,0,1.4,0.1,1.2,0.2
		c4.6,0.2-1.9-0.7,1.3-0.6c-2.1-0.3-2.9-0.3-3.6-0.3c-0.4,0-0.8,0-1.4-0.1c0.5,0.1-0.7,0.1,0,0.4c-3-0.1-4-0.4-4.9-0.7
		c-0.9-0.3-1.7-0.8-4.6-1.3c1.1,0.6-7.8-0.9-3.7,0.4c-1.4-0.2-3.2-0.5-4.6-0.9c1.6,0.1-2.5-0.9,0.3-0.5l-2.1-0.5l3.2,0.4
		c-2.3-0.8-6-1.9-7.2-2.4c-3-0.8,0.8,0.5-2.6-0.4c1.3,0.2-0.8-0.6-2.3-1c3,1-0.1,0.4-2-0.1c-3-0.9-5.2-2.1-4.8-2l1.8,0.4
		c-0.8-0.2-0.4-0.3-2.1-0.8c-0.7,0-2.2-0.3-3-0.3c-0.5-0.2-0.9-0.3-1.3-0.5c-0.4-0.2-0.8-0.3-1.1-0.5c-0.6-0.3-1.1-0.6-1.4-0.7
		c0,0,0.7,0.2,1.5,0.5c0.3,0.1,0.7,0.2,1,0.3c0.2,0,0.4,0,0.4,0.1c-3.8-1.5-0.7-0.8-4.6-2.3l-1.1-0.2c-0.5-0.3-0.8-0.4-0.7-0.5
		c-0.9-0.2-2.6-1-3.5-1.3l-0.2-0.3c-1.7-0.7-3.9-1.3-5.7-2.5c1.4,1.1,2,1,4.7,2.4c1.6,1-2.9-1-3.5-1.3c0.2-0.1-0.9-0.6-2.2-1.2
		c-1.3-0.7-2.8-1.4-3.8-1.9c-1-0.7-2-1.3-2.6-1.7l-0.9-0.2c-0.4-0.9-3.8-2.1-5.8-3.5c1.2,0.5,1.1,0.2-0.3-0.7c0.9,0.8,0,0.4-1-0.1
		c-1.1-0.5-2.2-1.2-2-0.9c-3.6-2.5,1.1,0.2,0.2-0.8c-2-0.9-4-2.8-5.4-3.3c2.6,1.8-0.6-0.1-1.2-0.3c-2.5-1.8-0.8-0.6-0.9-0.8
		c0.1,0,0.2,0.1,0.3,0.1c0.8,0.4,1.3,0.7,1.3,0.7s-0.3-0.3-0.6-0.6c0,0,0,0,0,0c-0.3-0.2-0.7-0.3-1.1-0.5c-0.1,0-0.2-0.1-0.2-0.1
		c-0.1-0.1-0.2-0.2-0.4-0.3c-1.3-1-3.1-1.9-1.6-0.6c0,0-0.1,0-0.1-0.1c-0.6-0.4-1.2-0.8-1.8-1.3l-1.1-1.7c-2.5-2-4.6-2.8-5.6-4.3
		c-1.6-1.8-0.1-0.9,0.8-0.6c0.4,0.2,0.7,0.2,0.2-0.2c-0.2-0.2-0.6-0.6-1.2-1.1c-0.3-0.3-0.7-0.6-1.1-0.9c-0.4-0.4-0.9-0.8-1.4-1.3
		c-2.3-2.1-4-3.6-5.4-4.8c-1.3-1.2-2.4-2-3.4-2.8c-1.9-1.5-3.6-2.6-6.3-5.9c0.2,0.4,0.7,1,1.3,1.7c0.3,0.4,0.7,0.8,1.1,1.2
		c0.4,0.4,0.9,0.9,1.3,1.3c-1.1-0.8-0.9-0.4-0.8-0.1c-1.5-1.5-2.9-3.1-4.4-4.8c-0.6-0.7-1.3-1.5-2-2.3c-2.2-2.7-4.7-5.7-6.8-8.4
		c1.4,1.2-0.9-2.6,0.6-1c-2.1-2.7-4.1-5.2-5.3-6.2c3.9,5.8,1.8,3.2-0.6,0.2c-1.5-2.1-3.2-4.3-3.2-4c-0.1-0.2-0.2-0.3-0.3-0.5
		c-0.4-0.8-0.9-1.6-1.5-2.5c-0.5-0.9-1.1-2-1.7-3.1c0.9,1.6,0.3,0.8-0.4-0.1c-0.2-0.4-0.4-0.9-0.6-1.3c-0.6-1.2-1.1-2.4-1.7-3.6
		c-0.5-1.2-1.1-2.5-1.8-4.1c0.2,0.1,1.7,2.9,2.8,4.4c0.5,0.8,0.9,1.3,0.9,1c0-0.1-0.2-0.4-0.4-0.9c-0.3-0.5-0.7-1.3-1.2-2.4
		c-4.7-7.5-2-1.6-3.2-2.5c-0.5-0.8-1-1.6-1.3-2.3c-0.2-0.5-0.2-0.6-0.2-0.8c-1.1-2.5-1.4-2.5-1.9-3.4l-0.6-1.7l-0.3-0.3
		c-0.6-1.3-1.3-2.7-1.7-3.8c-0.4-1.1-0.6-1.9-0.4-1.8c-0.5-0.9-0.9-1.9-0.5-0.6c-0.2-0.8-0.7-1.9-1.2-3.2c0.5,0.7,0.4,0.5,2,3.2
		c-1.4-3.5-2.1-5.2-2.3-6s0-0.6,0.2-0.4c0.4,0.5,1.1,1.4-0.6-4.1c-0.7-1.7-0.9-1.9-1.3-2.5c-0.2-0.3-0.4-0.6-0.6-1.2
		c-0.2-0.6-0.5-1.5-0.9-3c0.3,3.5-0.1,3.2,3.1,12.2c-0.2-0.2-0.4-0.5-0.5-0.9c-0.1-0.1-0.1-0.3-0.2-0.4c-1-2.7-2-5.6-2.8-7.9
		c0.2,0.7,0.4,1.2,0.4,1.5c0,0,0-0.1,0-0.1c-0.3-0.8-0.5-1.7-0.7-2.6c-0.2-0.9-0.5-1.8-0.7-2.7c-0.2-0.9-0.5-1.7-0.8-2.5
		c-0.4-1.7-0.9-3.4-1.3-5.2c-0.5-2-1.1-4-1.5-6.1c-0.4-2.1-0.8-4.2-1.2-6.2c-0.3-1.6-0.3-1.1-0.5-1.9c-0.2-2.6-0.6-5.5-1-8.4
		c-0.3-2.9-0.7-5.9-0.8-8.7c-0.1,1.3-0.6-0.5-0.7-3.6c-0.4-3.3,0.4-1.3,0.4-4.4c-0.2-1.5-0.2-4.4-0.2-5.6l0.1,0.1
		c-0.1-0.9-0.2-2.1-0.2-3.4c0-1.3,0.1-2.6,0.2-3.7v0.3c0.1-1.8,0.4-3.9,0.5-5.8c-0.2-0.8,0.4-5.5,0.3-6.6c0-0.3,0,0.1,0.1-0.4
		l-0.2-0.2c0,0,0.1-0.2,0.1-0.6c0-0.4,0.1-0.8,0.2-1.3c0.1-1,0.3-1.9,0.3-1.9c0,0.8,0.1,1,0,2.1c0.8-4,0-1.4,0.2-3.5
		c0.2-2.9,0.4-2.7,0.7-4c0,1.1-0.3,2-0.4,2.7c0,1.6,0.4-1.7,0.5-1.7c0.2-0.6-0.2-0.9,0.3-2.9c0.4-1.7,1.1-5.9,1.3-5.3
		c0.1-0.8,0.2-1.6,0.4-2.4c0.2-0.8,0.3-1.5,0.4-2.1c-0.2,0.7-0.5,1.7-0.7,2.6c-0.2,0.8-0.4,1.6-0.5,1.7c0.2-0.7,0.3-1.7,0.5-2.5
		c0.2-0.9,0.4-1.6,0.5-1.8l-0.2,1.1c0.2-0.9,1.1-4.3,0.6-3.2l0.9-2.3c0-1.1,0.8-3.7,1.4-5.9c0.3,0,0,1.8,1.3-2.2
		c0,0,0.2-0.9,0.4-1.8c0.3-0.9,0.5-1.8,0.5-1.8c0.6-1.8,0.9-2.2,0.9-1.9c2.3-6.2,1.7-6.6,3.8-11.3c-0.5,1.7-0.1,1,0.5-0.4
		c-0.1,0.1-0.1,0.3-0.2,0.5c-0.4,0.4,0.7-2,1.1-3c2.5-3.9,6.6-13.8,10.9-19.9c-0.6,0.3,1.5-2.9,2.3-4.2c0.1,0.6,2.3-3.5,3.6-5.1
		l-0.9,0.7c0.7-1,1.3-1.8,1.8-2.6s1-1.5,1.4-2.2c0.9-1.4,1.7-2.6,2.7-3.6c0.8-1,0.8-0.8,0.4-0.2c-0.4,0.6-1,1.6-1.3,2
		c0.6-0.6,1.2-1.5,1.9-2.3c0.7-0.9,1.4-1.8,2.1-2.7c1.4-1.8,2.7-3.6,3.8-4.5c0.1-0.3-0.8,0.3,1.2-2.1c1.8-1.7,5.2-5.2,5-4.8
		c1.3-1.5,1.6-1.9,3.3-3.4c-0.1,0.2-0.7,0.9-1.2,1.4c1.2-1.2,2.3-2.4,3.4-3.5c1-1.1,2.1-2.1,3.2-3.2c0.8-0.5,2.3-1.9,4-3.4
		c1.8-1.5,3.8-3.1,5.4-4.3c1.4-1.8,5.2-3.8,5.2-4.4c-0.1,0.1,0.4-0.2,0.6-0.3c1.1-1,1.9-2,3.5-3.1c0,0-0.1,0.2-0.2,0.3
		c-0.1,0.1-0.2,0.3-0.2,0.3c-0.2,0.5,3.6-2.4,4.8-3c-0.6,0.2,2.1-1.4,2.1-1.6c0,0,0.4-0.4,0.9-0.7c0.4-0.3,0.9-0.6,0.9-0.6
		c3.1-1.9,0.3-0.3,4.1-2.6c2.1-1.3,0.9-0.1,0.1,0.3c1.8-0.9,3.5-1.9,5.3-2.9c-0.4,0.2-0.5,0.2,0-0.1c0.1,0,0.4-0.2,0.9-0.4
		c0.6-0.3,1.2-0.7,1.8-1c0,0-0.1,0.1-0.1,0.1c0.1-0.1,0.3-0.1,0.4-0.2c-0.1,0.1-0.3,0.2-0.4,0.2c0,0.1,0.5-0.2,1.2-0.6
		c0.4-0.2,0.8-0.4,1.1-0.5l-0.4,0.5c1.4-0.8,5.2-2.7,5-2.8c0.8-0.3,1.6-0.7,2.5-1.1c0.9-0.4,1.8-0.8,2.8-1.2c2-0.8,4-1.6,5.9-2.4
		c1-0.4,1.9-0.8,2.8-1.1c0.9-0.3,1.7-0.6,2.5-0.9c0.9-0.4,1.7-0.6,2.3-0.9c-0.8,0.3-0.8,0.4-0.1,0.1c1.9-0.8,4.2-1.6,4.4-1.5
		c1.9-0.6,1.9-0.3,4.9-1.2c0,0,0.1-0.2-0.1-0.2c1.2-0.3,2.4-0.6,3.8-0.9c1.5-0.4,3-0.8,4.6-1.2c1.6-0.5,3.2-0.8,4.8-1.1
		c1.5-0.4,3-0.6,4.4-0.8c-0.5,0.1-1,0.3-1.4,0.5c1-0.2,2-0.5,3-0.6c1.2-0.2,2.4-0.4,3.6-0.6c2.3-0.4,4.6-0.9,6.9-1.2
		c-0.4,0.1-0.3,0.2-1.4,0.4c1.7-0.1,3.5-0.3,5.1-0.5c1.5-0.2,2.9-0.4,3.7-0.5c-2.3,0-0.1,0.1-1.7,0.2c-1.2,0-0.8-0.1,0.3-0.3
		c1-0.2,2.7-0.3,3.8-0.3h0.1c1.7-0.1,2.6-0.1,3.5-0.2c0.4,0,0.9-0.1,1.4-0.1s1.2,0,2,0c2,0.1-1.8,0-1,0.2c0.8,0.4,7.7,0.2,8.4,0.3
		c0.8-0.1,1.9-0.1,1.8-0.2c2.6,0.1,1.2,0.3,3,0.4c0,0,0.5-0.1,1.2-0.1c0.8,0,1.7-0.1,2.7-0.1c1.5,0,2.8,0,3.5,0
		c-0.3,0.1,2.4,0.6,0.1,0.5c2.7,0.3,4.9,0.3,6.8,0.5c1.9,0.1,3.6,0.2,5.3,0.3c1.7,0.3,7,1.3,8.8,1.6c0.8,0.4-1.6-0.3-2-0.2l2.7,0.8
		c-3.6-0.7,0.4,0.4-1.6,0.2c1.5,0.2,3.9,0.8,6.5,1.5c1.3,0.3,2.6,0.7,3.9,1c1.2,0.4,2.4,0.8,3.5,1.1c-2.8-1.3,5.8,1.5,5.7,1.1
		c5,1.7,2.4,1.2,4.2,1.9c1.3,0.4,2.6,0.8,3.8,1.3s2.4,1,3.6,1.5c1.2,0.4,2.3,0.9,3.5,1.4c1.2,0.4,2.3,1,3.4,1.5c0,0,0.1,0.1-0.2,0
		c1.1,0.5,2.2,1,3.5,1.6c0.6,0.3,1.2,0.6,1.9,0.9c0.7,0.3,1.3,0.7,2,1c1.3,0.6,2.7,1.3,3.9,1.9s2.4,1.2,3.4,1.7
		c-0.2,0,0.1,0.2-0.9-0.3c4.1,2.6,1,0.1,5.7,3.1l-1-0.4c3.1,1.5,5.6,3.7,9.1,5.6c0.1,0.1-0.7-0.3-1.2-0.6c0.7,0.5,1.5,1,2.3,1.5
		s1.5,1.1,2.3,1.6c1.5,1.1,3,2.1,4.3,2.9c0.3,0.4-0.2,0.2-1.4-0.6c2.8,2.2,3.3,2,5.8,4.2c0.6,0.5,1.6,1.5,1.6,1.6
		c1.6,0.9,5,4.1,6.4,5.2c0.2,0.4,1.2,1.3,2.6,2.8c6.4,6.3,12.6,13,18.2,20.1c1.4,1.7,2.7,3.6,4.1,5.4l2,2.7l1.9,2.8
		c1.2,1.9,2.5,3.7,3.7,5.6c1.2,1.9,2.3,3.8,3.5,5.7c1.2,2.8-2.3-3.5-1.6-1.7c0.2-0.3,1.7,2.5,4.3,7.3l0.1,0.2
		c1.1,2.1,1.6,3.3,2.7,5.5v-0.1c1.3,2.3,2,5.5,3,6.6l0.5,2c1.3,2.3,1.5,3.9,2.9,6.8l-0.2-0.3c1.2,4.2,3.4,8.4,3.5,10.1
		c0.6,1.8,1.2,3.7,1.7,5.2s0.9,2.7,1.1,3c0.1,0.9-0.2,0.4-0.4-0.1c0.8,3.3,1.8,6.8,2.4,10.3c0.3,1.8,0.7,3.5,1,5.3
		c0.3,1.8,0.5,3.5,0.8,5.3c0.6,3.5,0.8,7,1.2,10.4c0.2,1.7,0.3,3.4,0.4,5c0.1,1.7,0.2,3.3,0.3,4.8c0,0.6-0.1-0.1-0.2-0.5
		c0.1,1,0.1,1.9,0.1,2.9s0,1.9,0,2.9s0,2,0,2.9c0,0.5,0,0.9,0,1.4s-0.1,0.9-0.1,1.4c-0.1,1.9-0.2,3.6-0.3,5.3c0,0.8,0,1.6,0,2.4
		c0,0.7,0,1.5,0,2.2l0.1,2.1c-0.3,1.8-0.5,1.6-0.7,3c0.1,1.5-0.9,7-0.8,7.9c-0.3,0.8-0.1-0.3-0.2-0.3c-0.2,0.9-0.3,1.8-0.4,2.7
		c-0.1,0.9-0.3,1.9-0.4,2.8c-0.3,1.8-0.5,3.7-0.9,5.3l0.1-1.1c-2.1,8.6-5.1,18.2-8.6,27.2s-7.6,17.3-10.8,23.8
		c-2,3.4-1.2,1.3-2.1,2.8c-3.4,6.6-8.3,13.3-13.1,19.7c-1.3,1.5-2.6,3.1-3.8,4.6c-0.7,0.8-1.3,1.5-1.9,2.3c-0.6,0.8-1.3,1.5-1.9,2.2
		c-1.3,1.4-2.5,2.8-3.7,4.2c-1.2,1.3-2.4,2.6-3.5,3.9c-3.6,3.9-6.2,6.3-7.8,8.5c-1.4,1.7-1.9,2.4-1.9,2.4
		c9.7-8.6,18.1-17.5,25.7-27.1c7.6-9.6,14.3-19.9,20.1-31.3c0.9-2,1.9-4.1,2.9-6.3c1-2.2,1.9-4.5,2.8-6.8c1-2.2,1.7-4.5,2.5-6.7
		c0.7-2.1,1.5-4.2,2.1-6.1l1.8-6c0.5-2,1-4.1,1.5-6.1l0.8-3.1l0.6-3.1c0.4-2.1,0.8-4.1,1.2-6.2c0.6-4.2,1.3-8.3,1.7-12.5
		c0.6-4.2,0.8-8.4,1-12.6c0.6-16.9-1-34-5.3-50.6c0.3,1.8-0.3,0-0.8-1.7v-0.4c0,0-0.2-0.7-0.4-1.3c-0.3-0.7-0.5-1.3-0.5-1.3
		c-0.7-2.4-0.1-1.5,0.5,0.6c-3.7-13.1-8.3-24.5-14.3-36.3c-0.3-0.3-1.1-1.8-1.9-3.3s-1.6-2.9-1.9-3c-0.3-0.6,0.1-0.1,0.3,0.2
		c-4.8-7.9-5.2-8.3-9.6-15.5c-1.3-1.8-2.6-3.6-3.9-5.4c-0.7-0.9-1.4-1.7-2.1-2.6l-2.1-2.6c-2.7-3.5-5.8-6.7-8.7-10
		c-1.6-1.6-3.1-3.1-4.7-4.7l-2.3-2.3l-2.5-2.2c-1.6-1.5-3.2-3-4.9-4.4l-5.1-4.2c-6.9-5.4-14.1-10.5-21.7-14.8l-2.8-1.7l-2.9-1.5
		c-2-1-3.9-2.1-5.9-3c-2-0.9-4-1.9-6-2.8c-1-0.5-2-0.9-3-1.3l-3.1-1.3c-32.4-13-67.9-16.4-102.9-9.9c0.2-0.3-2-0.1-4.1,0.2
		c-3.4,0.4-6.9,1.1-1.8-0.6c1.9-0.8,5.4-1.6,9.3-2.4c2-0.3,4-0.6,6.1-0.9c1-0.1,2-0.3,3-0.4c1-0.1,1.9-0.2,2.8-0.3
		c-3.1-0.1-3-0.4-1.1-0.8c0.9-0.2,2.3-0.4,3.9-0.6c0.8-0.1,1.7-0.2,2.6-0.4c0.4,0,0.9-0.1,1.4-0.1c-1.6,0.1-2.5,0.1-3.3,0.1
		c-0.9,0-1.3-0.1-1.7-0.1s-0.9-0.1-2,0c-1.1,0.1-2.8,0.2-5.6,0.8l-0.3-0.6c2.4-0.4,5.1-0.5,7.8-0.7c1.3-0.1,2.7-0.2,4-0.3
		c1.3,0,2.6-0.1,3.8-0.1c-1,0.2,0.1,0.3-1.5,0.5c0,0,0.9-0.1,2.3-0.1c1.4-0.1,3.2-0.2,5-0.3c3.7-0.1,7.3-0.1,7.3-0.1l-1.5,0.4
		c8.4,0.2,18.7,1.4,24.4,2.2c-1.7-0.3-3.2-0.6-4-0.8c-0.9-0.2-0.7-0.5,1.6-0.2c2.6,0.1,7.5,0.4,11.5,1.4c2.1,0.9,17.2,4.7,7.4,3
		c3.1,0.7,5.2,1.1,6.6,1.4c1.5,0.4,2.4,0.6,3.4,0.8c1.8,0.4,3.4,0.7,8.2,2.2c-0.7-0.2-1.7-0.6-2.6-0.9c-1-0.3-2-0.6-2.7-0.8
		c-0.7-0.2-1.2-0.3-1.2-0.3c-0.8-0.8,6,0.2-1.4-2.4c4.5,1.1,5.4,1.1,6.7,1.2c0.6,0.1,1.4,0.2,2.7,0.5c0.7,0.2,1.5,0.4,2.5,0.7
		c1,0.3,2.2,0.7,3.7,1.3c4.6,2.3-1.8,0.4-8.4-1.7c3.3,1.2,6.2,2.5,9.7,3.5c1.1,0.7-0.5,0.3-2.3-0.3c-1.9-0.6-4-1.1-3.9-1
		c3,1.1,3,1,2.9,0.9c0-0.1-0.1-0.3,2.7,0.8c2.5,0.8,4.1,1.5,5.3,2c1.2,0.5,1.8,1,2.5,1.5s1.3,0.9,2.4,1.5c0.5,0.3,1.2,0.6,2,1
		c0.8,0.4,1.7,0.8,2.9,1.3c-1-0.5-2.3-1.2-3.1-1.6c-0.8-0.5-1-0.7,0.2-0.3c0.8,0.4,1.5,0.7,2.1,1c0.6,0.3,1.2,0.6,1.7,0.9
		c1,0.5,1.8,0.9,2.5,1.2c1.3,0.6,2.1,1,2.8,1.2c1.4,0.5,2.3,0.8,6.6,3.2c2.2,1.8,2.6,2.5,3.4,3.5s2,2.1,5.6,4.6l-4.1-2.7
		c1.3,1.1,2.8,2.3,4.3,3.4c1.4,1.2,2.9,2.3,4.3,3.4c1,0.6,1.9,1.3,2.8,1.9c0.9,0.6,1.8,1.3,2.7,2c1.8,1.3,3.5,2.6,5.3,3.9
		c1.7,1.4,3.3,2.7,5,4l2.5,2l2.4,2.1c1.6,1.4,3.2,2.8,4.8,4.3c1.5,1.5,3.1,3,4.6,4.6c0.8,0.8,1.6,1.6,2.4,2.4
		c0.7,0.8,1.5,1.7,2.3,2.5c0.7,0.8,1.5,1.6,2.2,2.5c-1-1.2-2-2.4-2-2.4c-1.3-2,3.9,4.2,4.1,3.9c0,0,0.1,0.2,0.4,0.6
		c0.2,0.3,0.5,0.8,0.8,1.3c0.6,0.9,1.1,1.8,1.1,1.8c0.6,0.3-0.7-1.7-2-3.6c-1.3-1.8-2.5-3.5-1.5-2.7c0.3,0.5,1.2,1.6,1.7,2.2
		l-2.4-3.2c5.6,7,10.5,12.4,13.4,18.6c-2.4-3.6-3.9-5.5-4.7-6.6c-0.9-1-1.3-1.1-1.7-1.2c-0.4-0.1-0.7-0.2-1.7-1.1
		c-0.5-0.5-1.1-1.1-1.9-2.1c-0.4-0.5-0.9-1.1-1.4-1.7c-0.3-0.3-0.5-0.7-0.8-1c-0.3-0.4-0.6-0.7-1-1.1c0.7,0.8,1.3,1.5,1.7,2.1
		c0.4,0.5,0.6,0.9,0.8,1.2c0.3,0.5,0.2,0.5-0.1,0.3c-0.5-0.4-1.7-1.5-1.6-1c2.7,3.9,1.7,1.6,4.7,6c-0.4,0.1-7.5-8.8-4.7-4.5
		c0.9,0.1,3.6,3.9,5.3,5.5c2,3.4-0.4,0.2,0.4,1.7c1.2,1.8,2.2,2.7,3.2,4.4l-1.2-1c1.4,2.3,2.2,3.7,2.7,4.5c0.5,0.9,0.9,1.2,1.2,1.6
		s0.7,0.8,1.4,1.8s1.7,2.5,3.1,5.3c0.3,0,0-0.8-0.7-2.2c-0.7-1.4-2-3.3-3.3-5.5c-0.2-1.4,2.2,1.8,4.6,5.3c2.3,3.6,4.7,7.4,5,6.6
		c5.2,10.7-1.8-2.6,2.2,6.7c0.8,2.7-0.2,1.1-1.6-1.4c-0.7-1.3-1.5-2.7-2.2-4.1c-0.8-1.3-1.5-2.4-1.9-2.9c0,0,0.3,0.6,0.7,1.5
		c0.2,0.4,0.4,1,0.7,1.5c0.2,0.6,0.5,1.2,0.7,1.8c1,2.4,1.9,4.8,1.9,4.8c-1.2-1.4-2.4-3.5-3.5-5.5c-1.2-1.9-2.3-3.7-3.1-4.3
		c1.8,3.4,2.6,4.9,3.4,6.4s1.7,3,3.5,6.4c-4.5-11.8,2.9,4.7,0.9-2.2c0.6,1.3,0.8,2.3,1.1,3.1c0.2,0.8,0.4,1.3,0.6,2
		c0.2,0.6,0.5,1.3,0.9,2.4c0.4,1,1,2.4,1.6,4.4c-1-2.5-1.3-2.5-1.5-2.7c-0.3-0.2-0.6-0.6-2-3.9c2.2,5.3,2.9,7.3,3.7,9.2
		c0.4,1,0.8,2,1.3,3.4c0.5,1.4,1.1,3.3,1.9,6c1.7,3.2-2.4-11.5,2.1,1.7c0.4,1.4,0.5,2,0.4,2.1c-0.1,0-0.3-0.5-0.5-1.4
		c2.1,9.7,0.4-2.2,2.3,3.7c1.1,4.2,1.2,5.8,0.6,4.1c0.5,1.6,0.8,2.5,1,3.1c0.2,0.6,0.4,0.9,0.5,1.1c0.3,0.4,0.5,0.6,1,2.7l-0.3-2
		c0.6,1.8,0.7-3.5,2.5,5.9c1,6.9,0.3,4.8,0,5c0.3,1.3,0.5,2.6,0.6,3.8c0.1,1.2,0.2,2.3,0.3,3.4c0.1,2.2,0.2,4.1,0.2,6
		c0.1-0.4,0.3,0,0.4,1.7c0.6,9.1-0.3,5.3-0.4,8.7c-0.2,6.5,0.1,6.1,0.5,5.9c0.2-0.1,0.4-0.2,0.6,0.7c0.2,0.9,0.2,2.7,0,6.3
		c0,0,0.1-1.1,0.2-2.6c0-0.8,0.1-1.7,0.2-2.7c0-1,0-2.1,0.1-3.1c0-2.1,0.1-4.2,0.1-5.8c0-1.6-0.1-2.6-0.1-2.6c0.4,0.7,1,1,0.8-2.6
		c-0.3-0.2-0.6-1.7-0.9-4c-0.4-2.2-0.8-5.1-1-8c0.2-0.9,0.8,2.9,1.2,5.7c0.2,1.4,0.4,2.6,0.5,2.8c0.1,0.2,0.2-0.5,0.2-2.9
		c0.1,0.9,0.1,1.8,0.2,2.8c0.1,1,0.1,2,0.2,3.1c0.1,2.2,0.3,4.4,0.3,6.5c-0.7-4.3-0.2,13.6-0.9,6.3c0.1,2.3-0.1,4.4-0.2,6.3
		c-0.1,1.9-0.2,3.6-0.3,5.1c-0.3,3.1-0.6,5.7-0.9,8.3c-0.7,5.1-1.3,10-2.8,18.4c-0.1-0.8,0.2-3.9,0.7-7.9c0.2-2,0.4-4.2,0.6-6.5
		c0.1-1.1,0.3-2.3,0.4-3.4c0.1-1.1,0.2-2.3,0.4-3.4l0.5-0.7c0.6-11-1.2,8.5-1.8,6.4c-0.3,3.4-0.6,7-1.4,10.6
		c-0.4,1.8-0.7,3.7-1.1,5.6c-0.5,1.9-1,3.7-1.5,5.7c-0.3,1-0.5,1.9-0.8,2.9s-0.6,1.9-0.9,2.9c-0.6,1.9-1.2,3.9-1.9,5.8
		c-0.7,1.9-1.4,3.9-2.1,5.8l-1,2.9c-0.3,1-0.7,1.9-1.1,2.9c1.4-2.6,0.4,0.5,0.4,1.3c0.6-1.6,1-2.7,1.4-3.5c0.3-0.9,0.5-1.5,0.7-2
		c0.4-1.1,0.8-2,1.8-4.2c0.1,1-1.3,4.8-1.8,6.9c-0.1,1.9,1.7-4.8,2.8-6.9c-0.9,3.1-1.3,4.5-1.6,5.6c-0.3,1.1-0.4,1.9-1,3.7
		c-1.7,3.1-1.8,2.6-3.2,4.9c-3.2,7.2-4.7,10.4-5.9,13.3c-0.6,1.4-1.2,2.8-2.1,4.5c-0.9,1.7-2,3.6-3.7,6.4c3.3-5.4-1,0.9,0.9-2.4
		l-1.2,2c2.5-4.9,5.9-11.5,8.2-16.9c1.1-2.7,2.1-5,2.6-6.6c0.5-1.6,0.5-2.5,0.1-2.2c-0.8,2.1-1.6,4-2.4,5.9
		c-0.8,1.9-1.5,3.7-2.3,5.6c-1.8,3.7-3.5,7.7-6.3,12.4V304c-4.1,6.8,0.3,0.1-0.4,1.8c-0.5,1-1,1.9-1.5,2.7s-1,1.5-1.5,2.1
		c-0.9,1.3-1.8,2.3-2.6,3.3c-1.5,2-3,3.6-4.4,6.3c0,0,1.4-1.8,2.7-3.6c0.7-0.9,1.3-1.9,1.8-2.5c0.5-0.7,0.8-1.2,0.8-1.2
		c-3.3,6,1.2-1.6,1,0.2c-0.8,1.3-1.6,2.8-2.6,4.2c-1,1.5-2.1,3-3.2,4.6c-0.6,0.8-1.2,1.6-1.8,2.5c-0.6,0.8-1.3,1.6-1.9,2.5
		c-1.3,1.7-2.7,3.4-4.1,5.1c-1.5,1.7-3,3.4-4.5,5.1c-0.8,0.9-1.5,1.7-2.3,2.6l-2.4,2.5c-1.6,1.6-3.2,3.3-4.8,4.9
		c-1.6,1.6-3.2,3.1-4.8,4.6c4-3,5.1-3.9,9.7-8.6c-1.3,2.9-3.3,4.7-0.3,3.1c0,0,1.4-1.4,2.9-2.8c0.7-0.7,1.4-1.4,2-2
		c0.5-0.6,0.8-0.9,0.8-0.9l0.8,0.6c-0.4,0.4-0.7,0.8-1.1,1.2c-0.4,0.4-0.8,0.8-1.2,1.1c-0.8,0.7-1.5,1.5-2.3,2.1
		c-0.1,0.3-0.7,1-1.5,1.9c-0.9,0.9-1.9,2-3.1,2.9c-2.3,2-4.5,3.9-4.5,4.3l5-4.7c2.9-1.9-3.2,3.5-6.7,6.9c1.9-1.3,4.7-3.8,7.9-6.9
		c3-3.2,6.6-6.8,9.8-10.6c-0.7,0.3,5.2-7.5-1.2-0.5c-0.1-0.2,0.7-1.4,1.9-2.9c0.6-0.8,1.3-1.5,1.9-2.4c0.6-0.8,1.3-1.7,1.9-2.4
		c-1.1,1.6,5-4.5,0.8,1.3c2-2.7,2.6-3.5,3.2-4.2c0.7-0.8,1.5-1.7,4.2-5.6c-0.1,0.3,0.4-0.4,1.3-1.5c0.4-0.6,1-1.3,1.5-2.1
		s1.1-1.6,1.7-2.5c1.2-1.7,2.4-3.4,3.3-4.6c0.9-1.2,1.5-1.9,1.5-1.6c0.6-1.4,0.3-1.5,0.5-2.5c0.1-0.5,0.4-1.2,0.9-2.3
		c0.5-1.2,1.5-2.8,2.7-5.2c-0.8,1.1-2.9,4.1-4.2,6.1c-1.4,1.9-2,2.7-0.3-1l-2.3,4.8c-4.4,6.1,0.6-2.1-5.1,6c1.6-2.4,4.6-7.4,5.6-8.4
		c-1.2,0.7,0.5-2.5,2.4-6c1.8-3.6,3.7-7.5,3.4-7.9c0.3-0.4,0.7-0.9,1-1.5c0.3-0.6,0.7-1.2,1-1.9c0.7-1.5,1.6-3.3,2.7-5.8
		c0,0.8,1.6-1.7,0.1,2.1c-1.6,3.1-2.4,5.5-4.5,8.7c0.5-0.3,1.2-1.2,2.1-2.6c0.7-1.4,1.6-3.1,2.5-5.1c0.4-1,0.9-2,1.4-3.1
		c0.5-1.1,0.9-2.2,1.3-3.3c0.9-2.2,1.8-4.5,2.7-6.5c-0.5,1.1-0.8,1.4-0.1-1c0.5-1.3,1.1-2.9,1.8-4.7c0.3-0.9,0.7-1.7,1-2.6
		c0.3-0.9,0.6-1.7,0.9-2.5c1.1-3.1,1.9-5.1,1.7-3.3c0,0,0.1-0.4,0.3-1.1s0.5-1.8,0.8-3c0.6-2.5,1.5-5.9,2.2-9.3c0.3-1.7,0.6-3.4,1-5
		c0.3-1.6,0.6-3.1,0.8-4.4c0.4-2.6,0.6-4.3,0.6-4.3c0.3-0.1-0.4,3.9-0.6,5.6c0,0,0.6-3.8,1.1-7.7c0.3-1.9,0.4-3.8,0.6-5.3
		c0.1-1.4,0.2-2.4,0.2-2.4c0.8-3.6-0.1,5.3,0.1,6.9c0,0,0.1-0.7,0.2-1.7c0.1-1,0.2-2.4,0.4-3.8c0.1-1.4,0.3-2.8,0.4-3.8
		c0.1-0.5,0.1-1,0.1-1.3s0-0.5,0-0.5s0.1,0.4,0.2,0.8c0.1,0.4,0.1,0.8,0.1,0.8c0-1.4,0.1-5.3,0.3-9.3c0.1-4,0.2-8,0.5-9.6
		C476.6,199.3,476.3,197,476.1,195.1z M355,372.3c0.3-0.1,0.5-0.1-0.7,0.5c0,0,0,0,0,0C354.5,372.6,354.7,372.5,355,372.3z
		 M351.6,374.7c0.1,0,0.2-0.1,0.3-0.1l0.3,0.1c3.3-1.7,4-2.4,5.2-3.2c2.6-1.1,2.8-1.4,5.4-2.6c-1.2,0.7-2.3,1.4-3.3,2
		c-1,0.6-1.9,1.2-2.7,1.7c1-0.5,2-1,3-1.5s1.9-1.1,2.8-1.6c1-0.6,2-1.1,2.9-1.6c-0.1,0.1-0.2,0.1-0.3,0.2c-1.3,0.8-2.4,1.5-3.5,2.2
		c-0.5,0.3-1.1,0.7-1.6,1s-1.1,0.6-1.7,1c-1.2,0.6-2.4,1.3-3.8,2.1C351.5,375.7,350.9,375.4,351.6,374.7z M339.5,379.9
		c0.1-0.1,0.2-0.1,0.3-0.2c0,0,0.1,0,0.1,0c0.1,0,0.3-0.1,0.4-0.1C340,379.6,339.7,379.7,339.5,379.9z M342.6,377.1
		c-1.1,0.4-2.2,0.8-3.3,1.2C340.5,377.8,341.9,377.3,342.6,377.1z M325.3,383.9l0.3,0.2c2.7-0.8,5.8-1.7,9.2-2.7
		c0.6-0.2,1.2-0.4,1.9-0.6c-0.4,0.4-0.9,0.8-1.8,1.3c-2.5,0.5-6.1,1.5-9.1,2.1c-1,0.2-1.9,0.3-2.7,0.4
		C323.9,384.3,324.7,384.1,325.3,383.9z M318.7,385.8c0.8-0.2,1.6-0.4,2.3-0.6l0.1,0.2c-2.6,0.7-3.5,0.9-3.8,0.8
		C317.7,386,318.2,385.9,318.7,385.8z M300.5,389.1c1.7-0.3,3.5-0.5,5.3-0.8c0.9-0.1,1.8-0.3,2.7-0.4c0.9-0.2,1.8-0.4,2.7-0.5
		c1-0.3,2.2-0.5,3.5-0.8c0.4-0.1,0.9-0.1,1.3-0.2c-0.5,0.6-1.1,1.2-8.1,2.7c1.1-1.4-6.2,0.4-8.3,0.1
		C299.8,389.1,300.1,389.1,300.5,389.1z M292.3,389.7c0.4,0,0.9,0,1.4,0c-1.8,0.4-3.7,0.7-6.4,0.7c-0.7-0.1-1.1-0.2-1.3-0.3
		C288.1,390,290.2,389.9,292.3,389.7z M264.1,390.3c0.2-0.1,0.6-0.2,0.9-0.3c2.2,0.1,4.3,0.2,6.5,0.3c-0.1,0.1-0.6,0.3-2.3,0.3
		c-2.4,0.1-3.8,0.1-4.5,0C264,390.5,263.9,390.4,264.1,390.3z M235.6,385.8c0.2,0,0.5,0,0.6,0c1.2,0.3,2.4,0.5,3.7,0.7
		c1.6,0.3,3.2,0.6,4.8,0.9c0.8,0.2,1.5,0.3,2.3,0.5c0.7,0.1,1.5,0.3,2.2,0.4c1.6,0.1,7.4,0.8,4.8,0.2c2.3,0.3,1.4,0.6,3.8,0.6
		c0,0-0.5,0-1.1,0c-0.5,0-1.1,0-1.1,0c2.5,0.2,4.9,0.5,7.3,0.7c-0.5,0-1,0-1.5,0c-1.9,0-3.9-0.1-3.9-0.1l5.2,1
		c-3-0.2-6.6-0.4-10.4-1c-1.9-0.3-3.9-0.5-5.9-0.9c-2-0.4-4-0.8-6.1-1.2c-0.7-0.2-1.4-0.4-2-0.5c-0.6-0.2-1-0.3-1.4-0.5
		c-0.8-0.3-1.3-0.4-1.5-0.6C234.9,385.8,235.2,385.7,235.6,385.8z M223.1,382.3c1.7,0.5,3.3,1,4.8,1.4c0.1,0,0.3,0.1,0.4,0.1
		c0.9,0.2,1.8,0.4,2.7,0.6l0.1,0.3c0.5,0.1,1,0.2,1.5,0.3c-0.1,0-0.4,0-0.7,0c-0.8-0.1-2.1-0.4-3.4-0.7c-2.7-0.7-5.6-1.5-5.5-1.1
		C221,382.3,221.4,382.1,223.1,382.3z M210.5,377.2c1.8,0.7,2.8,1.4,3.5,1.7c1.5,0.6,3,1.2,4.5,1.7c1.2,0.5,2.4,1,3.6,1.4
		c-6.4-1.8-12.2-4.2-16-6.2C207.5,376.3,208.8,376.7,210.5,377.2z M199.5,373l-0.5-0.1c-0.9-0.4-1.7-0.8-2.3-1.1
		c-0.6-0.3-1.1-0.6-1.4-0.8c-0.7-0.4-0.9-0.6-0.9-0.6C196.1,371.3,197.9,372.3,199.5,373z M184.2,364.7c-0.8-0.4-1.8-0.9-3.1-1.6
		c-1-0.7-1.5-1.1-1.9-1.4C180.8,362.8,182.5,363.8,184.2,364.7z M103.1,262.6c0.2,0.6,0.5,1.4,0.7,2.1c0,0-0.1,0-0.1,0
		c-0.3-0.6-0.6-1.3-0.9-2.2l-0.3-2C102.5,260.8,102.8,261.6,103.1,262.6z M100.9,256.3c0,0.3,0.1,0.6,0.2,1
		c-0.2-0.7-0.4-1.4-0.6-2.2c-0.3-0.8-0.5-1.8-0.7-2.7C100.2,253.8,100.6,255.1,100.9,256.3z M96.8,238l-0.3-1.4l-0.3-1.7
		c-0.1-0.4-0.1-0.7-0.2-1c0.3,0.9,0.5,2.4,0.5,1.7C96.5,236.3,96.7,237.2,96.8,238z M125.9,103c-0.8,1.2-1.5,2.3-2,3.2
		c0.4-1-1.7,2.3-2.5,3.4c-0.9,2.1-2.6,4.8-4.3,7.6c-1.6,2.9-3.3,5.9-4.4,8.6v-0.2c-3.8,7.8-7.2,16.3-10,25.1s-4.8,17.9-6.2,26.9
		c-1.6,10.1-3,21.6-2.5,32.9c0.1,2.1,0.2,0.4,0.3,2.1c0.1,2.9-0.2,0-0.2,1.1c0.3,2.8,0.4,6,0.7,9.4c0.1,1.7,0.3,3.5,0.4,5.2
		c0.1,0.8,0.2,1.6,0.3,2.5c0.1,0.6,0.1,1.1,0.2,1.5c-0.1-0.3-0.1-0.5-0.2-0.8c-0.2-1.1-0.4-2.3-0.7-3.4c-0.2-1.1-0.3-2.2-0.5-3.2
		c-0.4-2.1-0.7-4-1.2-5.7c0-1.6-0.1-3.8-0.3-6.4c-0.2-2.6-0.2-5.5-0.3-8.7c-0.2-6.3,0.2-13.3,1-19.3c0.3-0.9,0.9-4.5,1.4-7
		c0.5-2.3,0.7-3.6,0.6-1.1c0.1-1.1,0.3-3,0.6-4.6c0.3-2.3,0.6-4.1,0.1-2.9c0,1-0.4,2.1-0.8,4.3l-0.3-2c0.7-2.8,1.1-5.9,1.8-8.9
		c0.6-3,1.2-6,2.2-8.6c0.3-0.4,0.2,0,0,0.9c-0.2,0.8-0.5,2-0.7,3.2c-0.5,2.3-0.9,4.4-0.1,2.7c0.1-1.4,0.4-3.7,1.1-6.6
		c0.7-2.8,1.5-6.2,2.6-9.6c0.6-1.7,1.1-3.4,1.7-5c0.6-1.6,1.2-3.2,1.8-4.6c0.6-1.4,1.2-2.8,1.7-4c0.6-1.2,1.1-2.1,1.5-2.9
		c1-2.1,1.8-3.2,2.4-4c0.6-0.8,1.1-1.2,1.6-2.1l3.6-7c0.7-0.7,1-0.6,2.1-1.7c2.1-3.2,3.1-5.6,4.4-7.7
		C127,99.7,127.1,100.4,125.9,103z M197.5,43.2c0.9-0.5,1.8-1.1,2.4-1.2C199.3,42.3,198.4,42.7,197.5,43.2z M237.5,26.2
		c0.8-0.2,1.5-0.3,2.1-0.4c0.6-0.1,1-0.1,1.4-0.2c0.7-0.1,1.1,0,1.2,0c0.1,0,0.1,0.1,0.1,0.1c-5.4,1.5-12.9,3.2-19.1,5.6l0.4-0.3
		c-1.4,0.4-2.4,0.9-3.4,1.2c-1,0.3-1.9,0.6-2.8,0.9c-0.9,0.2-1.9,0.5-3.1,0.9c-1.2,0.4-2.5,0.9-4.2,1.5c0,0.2-2.6,1.1-1.5,1
		c-1.1,0.6-2.2,0.9-3.4,1.3c-1.2,0.4-2.5,0.9-4.1,1.7c-0.2,0,0.1,0.2-0.6,0.4c-4.2,2.1-3.8,1.9-3.7,1.7c0.1-0.2-0.1-0.3-5.4,2.3
		l-2.7,1.4l-2.6,1.6c-1.8,1.1-3.5,2.1-5.3,3.2l-5.1,3.5l-2.6,1.7l-2.5,1.8c-1.6,1.3-3.3,2.5-4.9,3.7c-1.6,1.3-3.1,2.6-4.7,3.9
		c-3.2,2.4-6,5.2-9,7.8c0.7-0.6,1.2-0.8,0,0.3c-1.5,0.6-3.7,3.8-5.8,5.6c0.1-0.2,1-1.2,1.5-1.7c-1.3,1.2-2.6,2.4-3.7,3.6
		c-1.1,1.3-2.2,2.5-3.3,3.7c-1.1,1.3-2.2,2.4-3.2,3.7c-0.9,1.2-1.9,2.3-3,3.5c-0.8,1.1-1.6,2.1-2.4,3.2c-1,1.4-2.1,2.9-3.2,4.3
		c-0.6,0.8-1.2,1.6-1.8,2.4c0-0.1,0-0.2-0.1-0.1c1-1.4,2.2-2.7,3.2-4.2c1.1-1.4,2.1-2.9,3.2-4.3c1.1-1.4,2.2-2.8,3.3-4.1
		c1.1-1.3,2.1-2.6,3.3-3.6c-3.1,2.9,0.3-1.2-0.9-0.6c0,0-0.3,0.3-0.8,0.8s-1.1,1.2-1.7,1.9c-1.2,1.4-2.4,2.8-2.4,2.8
		c0.9-1.2,1.9-2.5,2.9-3.8c1-1.4,2.2-2.7,3.4-4.1c1.2-1.3,2.3-2.7,3.5-3.9c1.2-1.2,2.3-2.3,3.4-3.2c-0.2,0.7-0.3,1,1.9-0.8
		c-1.6,1.2,0.1-0.7,1.4-2.3c0.7-0.7,1.2-1.4,1.2-1.5c0-0.1-0.7,0.2-2.3,1.6c-1.1,1.2-2.1,2.3-3.2,3.5c-1.1,1.2-2.4,2.4-3.8,3.9
		c-1.2,0.7-0.7-0.1,0.3-1.5c1.1-1.4,2.8-3.2,3.9-4.7c0.8-0.8,1.7-1.9,2.8-3c1.1-1.1,2.4-2.3,3.7-3.6c1.3-1.2,2.6-2.6,3.9-3.7
		c1.3-1.2,2.6-2.3,3.8-3.4c3.1-2.4,4.6-2.3,9.6-6.6c-3.6,2.2-2.2,0.8,0.3-1.5c2.6-2.1,6.4-5,7.1-5.9c5.7-3.1,8.7-6,13.6-7.8
		c-0.6,0.4-1.5,0.9-2.7,1.6c-0.6,0.3-1.2,0.7-1.9,1.1c-0.7,0.4-1.3,0.8-2,1.2c-2.6,1.7-5.3,3.4-6.2,4.3c0,0.7,2.6,0-5.4,5.6
		c4.9-3.1,6.3-4.2,7-4.8c0.7-0.6,0.7-0.9,3-2.4l-3.4,2.1c1.5-1.1-1.7,0.3,1.3-1.5c1.5-0.8,2.8-1.6,4.1-2.3c0.6-0.3,1.2-0.7,1.8-1
		c0.6-0.3,1.1-0.5,1.6-0.8c2.1-1,3.8-1.8,5.4-2.5c1.6-0.7,3.1-1.2,4.8-1.8c1.6-0.6,3.4-1.2,5.6-2c-1,0.3-0.6-0.2,0.3-0.7
		c0.9-0.5,2.4-1.2,3.4-1.7c8.4-2.9,0.3,1.1,5.7-0.1c2.7-1.5,8.5-3.3,6.4-3c1.7-0.6,2.1-0.6,2.4-0.7c0.3,0,0.5,0,1.7-0.2
		c1-0.5,2.1-1.1,3.6-1.6c0.7-0.3,1.5-0.6,2.5-0.9c0.9-0.3,2-0.5,3.2-0.8c-0.2,0.2-0.4,0.4-1.2,0.7c-0.8,0.3-2.1,0.6-4.3,1.3
		c2.5-0.7,4.3-0.8,5.2-0.7c0.9,0.1,0.9,0.4-0.2,0.9c0,0-0.5,0.1-1.3,0.3c-0.8,0.1-1.8,0.4-2.8,0.7c-2,0.5-4.1,1-4.1,1
		c-1.8,0.8,0.1,0.3,2.5-0.3c1.2-0.3,2.4-0.7,3.4-0.9s1.7-0.3,1.6-0.1c-1.8,0.5-3.4,0.9-4.8,1.3c-1.4,0.4-2.7,0.7-3.8,1.1
		c1.2-0.1,3.5-0.7,6.1-1.5C232.6,27.5,235.4,26.7,237.5,26.2z"/>
	<path class="st0" d="M340.5,28.4c0.8,0.2,1.3,0.4,1.3,0.4C341.3,28.6,340.9,28.5,340.5,28.4z"/>
	<path class="st0" d="M428.9,89.2c0.4,0.5,0.7,0.8,0.7,0.8c-0.8-1-1.6-1.9-2.4-2.8c0.1,0.1,0.1,0.2,0.2,0.2
		C427.9,88.1,428.5,88.7,428.9,89.2z"/>
	<path class="st0" d="M460.9,155.1c0.1,0.4,0.2,0.8,0.3,1.1C461.1,155.8,461,155.5,460.9,155.1z"/>
	<path class="st0" d="M339.5,26.4c-0.8-0.3-1.6-0.6-2.5-0.8C337.8,25.9,338.7,26.2,339.5,26.4z"/>
	<path class="st0" d="M186.2,43.1c-1.2,0.6-2.1,1.2-2.8,1.7L186.2,43.1z"/>
	<path class="st0" d="M396.2,346.9c1.2-0.8,1.7-1.3,2.1-1.8c-0.9,0.7-1.4,1-1.5,1.1C397,346,398,345.3,396.2,346.9z"/>
	<path class="st0" d="M396.7,346.2C396.6,346.3,396.6,346.3,396.7,346.2L396.7,346.2z"/>
	<path class="st0" d="M220.7,377.8c0.2,0.1,0.6,0.1,1.1,0.3L220.7,377.8z"/>
	<path class="st0" d="M208.2,372.9c0.2,0,0.3,0.1,0.4,0.1C208.4,372.9,208.3,372.9,208.2,372.9z"/>
	<path class="st0" d="M112.3,133.4c0-0.1,0-0.3,0.4-1.2c-0.3,0.5-0.4,1.1-0.9,2.3C111.9,134.1,112.1,133.8,112.3,133.4z"/>
	<path class="st0" d="M254.2,386c-0.2-0.1-0.7-0.1-1.7-0.2C253.2,385.9,253.7,386,254.2,386z"/>
	<path class="st0" d="M395.4,65.5C395.4,65.5,395.4,65.5,395.4,65.5C395.4,65.5,395.5,65.5,395.4,65.5z"/>
	<path class="st0" d="M246.2,27.1c-0.2,0.1-0.4,0.1-0.7,0.2C245.6,27.3,245.8,27.2,246.2,27.1z"/>
	<path class="st0" d="M179.3,54c0.1,0,0.1-0.1,0.3-0.1C179.5,53.9,179.4,53.9,179.3,54z"/>
	<path class="st0" d="M134.4,91.5c0.1-0.1,0.2-0.2,0.2-0.3c0.3-0.3,0.5-0.7,0.8-1C135,90.7,134.8,91,134.4,91.5z"/>
	<path class="st0" d="M193.5,45.4c-0.3,0.2-0.6,0.3-0.9,0.5c0.5-0.2,1.5-0.8,2.7-1.4c0,0,0,0,0,0C194.6,44.8,194,45.1,193.5,45.4z"
		/>
	<path class="st0" d="M379.6,359.4c-0.2,0.1-0.3,0.3-0.5,0.4C379.3,359.6,379.5,359.4,379.6,359.4z"/>
	<path class="st0" d="M282.2,388.2c-1.2,0-2.4,0-3.1,0.1C280,388.3,281,388.3,282.2,388.2z"/>
	<path class="st0" d="M318.2,383.6c0.6-0.1,1.2-0.3,1.9-0.6C319.2,383.3,318.6,383.5,318.2,383.6z"/>
	<path class="st0" d="M364.6,367.2l-0.6,0.6C364.2,367.5,364.4,367.3,364.6,367.2z"/>
	<path class="st0" d="M387.5,353.3c0.4-0.3,0.9-0.7,1.2-1C388.8,352.3,388.3,352.7,387.5,353.3z"/>
	<path class="st0" d="M317.6,384C317.5,384,317.5,384,317.6,384c0,0,0.1,0.1,0.2,0.1C318.1,384,318.1,383.9,317.6,384z"/>
	<path class="st0" d="M318.2,383.6c-0.3,0.1-0.6,0.1-0.9,0.1c-0.9,0.1-1.8,0.2-2.9,0.5c-0.7,0.1,1.1-0.4-0.7-0.1
		c-1.5,0.4,1,0.3,3.8-0.2C317.4,383.9,317.6,383.8,318.2,383.6z"/>
	<path class="st0" d="M322.6,382.3c-0.7,0.1-1.6,0.5-2.5,0.7c0.2,0,1.2-0.1,1.3-0.2C321.8,382.6,321.7,382.6,322.6,382.3z"/>
	<path class="st0" d="M308.7,385c-2.5,0.4-6.7,1.1-7,1.3L308.7,385z"/>
	<path class="st0" d="M283.1,387.1c0.5-0.1,1.2-0.2,1-0.2C281.9,387,281.5,387,283.1,387.1z"/>
	<path class="st0" d="M278.9,387.3c0.7,0.1,1.5,0.2,2.9,0.2C282.2,387.2,279.6,387.3,278.9,387.3z"/>
	<path class="st0" d="M278.9,387.3c-0.1,0-0.1,0-0.2,0C278.7,387.3,278.7,387.3,278.9,387.3z"/>
	<path class="st0" d="M239.8,382.9c0.8,0.1,1.5,0.2,2,0.3c0.7-0.1-2-0.3-3.4-0.6C238.8,382.6,239.3,382.8,239.8,382.9z"/>
	<path class="st0" d="M238.4,382.5c-0.2-0.1-0.4-0.1-0.5-0.2C238,382.4,238.2,382.5,238.4,382.5z"/>
	<path class="st0" d="M222.1,378.2c0.7,0.2,0.9,0.3,1.5,0.5l-0.5-0.4C222.2,378.1,221.1,377.8,222.1,378.2z"/>
	<polygon class="st0" points="130,101.8 131.1,100.2 130,101.5 	"/>
	<path class="st0" d="M258.4,25.8c-0.4,0,0.2-0.4-1.8,0C259,25.5,256.5,26,258.4,25.8z"/>
	<polygon class="st0" points="336.7,33.2 336.4,32.7 336.1,33 	"/>
</g></g><g class="containerBody" transform="scale(0.520924401801635) translate(294.2925900442923,231.78793160792628)" ><g class="sampleIconBox" transform="scale(1) translate(0,-16)"><g class="sampleIcons_1" transform="scale(1.6935790640108936) translate(84.67259114583334,-10.7116328125)" fill="#25e874"><g><rect x="87.6665039" y="128.6611328" width="33.2163086" height="5.9414063"></rect><rect x="90.6860352" y="136.2236328" width="27.1791992" height="4.8613281"></rect><rect x="92.953125" y="142.7041016" width="22.6484375" height="4.0507813"></rect><path d="M104.2753906,87.7480469c-12.7314453,0-23.0883789,10.3583984-23.0883789,23.0888672   c0,5.6533203,2.0458984,10.8359375,5.4311523,14.8525391h8.6054688c-5.0073242-3.0625-8.3662109-8.5654297-8.3662109-14.8525391   c0-9.6035156,7.8129883-17.4160156,17.4179688-17.4160156c9.6054688,0,17.4199219,7.8125,17.4199219,17.4160156   c0,6.2871094-3.359375,11.7900391-8.3662109,14.8525391H121.9375c3.3828125-4.0166016,5.4267578-9.1992188,5.4267578-14.8525391   C127.3642578,98.1064453,117.0078125,87.7480469,104.2753906,87.7480469z"></path><circle cx="189.5439453" cy="107.7358398" r="3.3022461"></circle><circle cx="104.2753906" cy="72.9467773" r="10.0009766"></circle><circle cx="104.2753906" cy="51.340332" r="7.2651367"></circle><circle cx="104.2753906" cy="34.7348633" r="5.0004883"></circle><circle cx="104.2753906" cy="22.46875" r="3.3022461"></circle><circle cx="139.0664063" cy="107.7358398" r="10.0014648"></circle><circle cx="160.6708984" cy="107.7358398" r="7.2651367"></circle><circle cx="177.2783203" cy="107.7363281" r="5.0009766"></circle><circle cx="69.4873047" cy="107.7358398" r="10.0014648"></circle><circle cx="47.8813477" cy="107.7358398" r="7.2651367"></circle><circle cx="31.2744141" cy="107.7363281" r="5.0009766"></circle><circle cx="19.0087891" cy="107.7358398" r="3.3022461"></circle><circle cx="128.8759766" cy="83.1359863" r="10.0008307"></circle><circle cx="144.1542969" cy="67.8583984" r="7.2647624"></circle><circle cx="155.8964844" cy="56.1162109" r="4.9998112"></circle><circle cx="164.5688477" cy="47.4431152" r="3.3026512"></circle><circle cx="79.6767578" cy="83.1364746" r="10.0008307"></circle><circle cx="64.3984375" cy="67.8583984" r="7.2651076"></circle><circle cx="52.6567383" cy="56.1166992" r="5.0008469"></circle><circle cx="43.9829102" cy="47.4431152" r="3.3026512"></circle></g></g></g><g class="sampleTexts_1" transform="scale(1) translate(0,16.000009155273432)"><g class="logo--name svgLogoName_1 logoNameBox" transform="scale(1) translate(42.82500600814819,310.57000122070315)" fill="#ffffff"><path d="M33.86-59.86L21.91-39.45L21.91-39.45Q21.74-39.10 21.57-39.45L21.57-39.45L9.63-59.86L9.63-59.86Q9.02-60.97 7.73-60.97L7.73-60.97L4.34-60.97L4.34-60.97Q3.44-60.97 2.79-60.33L2.79-60.33L2.79-60.33Q2.15-59.68 2.15-58.78L2.15-58.78L2.15-2.19L2.15-2.19Q2.15-1.29 2.79-0.64L2.79-0.64L2.79-0.64Q3.44 0 4.34 0L4.34 0L8.68 0L8.68 0Q9.58 0 10.23-0.64L10.23-0.64L10.23-0.64Q10.87-1.29 10.87-2.19L10.87-2.19L10.87-39.70L10.87-39.70Q10.87-39.88 11-39.92L11-39.92L11-39.92Q11.17-39.96 11.26-39.79L11.26-39.79L20.80-23.46L20.80-23.46Q21.10-22.90 21.74-22.90L21.74-22.90L21.74-22.90Q22.39-22.90 22.69-23.46L22.69-23.46L32.23-39.79L32.23-39.79Q32.31-39.96 32.48-39.92L32.48-39.92L32.48-39.92Q32.61-39.88 32.61-39.70L32.61-39.70L32.61-2.19L32.61-2.19Q32.61-1.29 33.26-0.64L33.26-0.64L33.26-0.64Q33.90 0 34.80 0L34.80 0L39.14 0L39.14 0Q40.05 0 40.69-0.64L40.69-0.64L40.69-0.64Q41.34-1.29 41.34-2.19L41.34-2.19L41.34-58.78L41.34-58.78Q41.34-59.68 40.69-60.33L40.69-60.33L40.69-60.33Q40.05-60.97 39.14-60.97L39.14-60.97L35.75-60.97L35.75-60.97Q34.46-60.97 33.86-59.86L33.86-59.86ZM73.42-47.91L73.42-13.06L73.42-13.06Q73.42-11.26 72.13-9.97L72.13-9.97L72.13-9.97Q70.84-8.72 69.04-8.72L69.04-8.72L64.70-8.72L64.70-8.72Q62.89-8.72 61.60-9.97L61.60-9.97L61.60-9.97Q60.36-11.26 60.36-13.06L60.36-13.06L60.36-47.91L60.36-47.91Q60.36-49.71 61.60-50.96L61.60-50.96L61.60-50.96Q62.89-52.25 64.70-52.25L64.70-52.25L69.04-52.25L69.04-52.25Q70.84-52.25 72.13-50.96L72.13-50.96L72.13-50.96Q73.42-49.71 73.42-47.91L73.42-47.91ZM69.04-60.97L64.70-60.97L64.70-60.97Q59.28-60.97 55.46-57.11L55.46-57.11L55.46-57.11Q51.63-53.28 51.63-47.91L51.63-47.91L51.63-13.06L51.63-13.06Q51.63-7.65 55.46-3.82L55.46-3.82L55.46-3.82Q59.28 0 64.70 0L64.70 0L69.04 0L69.04 0Q74.45 0 78.27-3.82L78.27-3.82L78.27-3.82Q82.10-7.65 82.10-13.06L82.10-13.06L82.10-47.91L82.10-47.91Q82.10-53.28 78.27-57.11L78.27-57.11L78.27-57.11Q74.45-60.97 69.04-60.97L69.04-60.97ZM103.27-8.72L109.80-8.72L109.80-8.72Q111.60-8.72 112.89-9.97L112.89-9.97L112.89-9.97Q114.18-11.26 114.18-13.06L114.18-13.06L114.18-47.91L114.18-47.91Q114.18-49.71 112.89-50.96L112.89-50.96L112.89-50.96Q111.60-52.25 109.80-52.25L109.80-52.25L103.27-52.25L103.27-52.25Q102.36-52.25 101.72-51.61L101.72-51.61L101.72-51.61Q101.12-50.96 101.12-50.06L101.12-50.06L101.12-10.87L101.12-10.87Q101.12-9.97 101.72-9.32L101.72-9.32L101.72-9.32Q102.36-8.72 103.27-8.72L103.27-8.72ZM109.80 0L94.59 0L94.59 0Q93.68 0 93.04-0.64L93.04-0.64L93.04-0.64Q92.39-1.29 92.39-2.19L92.39-2.19L92.39-58.78L92.39-58.78Q92.39-59.68 93.04-60.33L93.04-60.33L93.04-60.33Q93.68-60.97 94.59-60.97L94.59-60.97L109.80-60.97L109.80-60.97Q115.21-60.97 119.04-57.15L119.04-57.15L119.04-57.15Q122.86-53.32 122.86-47.91L122.86-47.91L122.86-13.06L122.86-13.06Q122.86-7.65 119.04-3.82L119.04-3.82L119.04-3.82Q115.21 0 109.80 0L109.80 0ZM163.62-54.44L163.62-58.78L163.62-58.78Q163.62-59.68 162.98-60.33L162.98-60.33L162.98-60.33Q162.38-60.97 161.47-60.97L161.47-60.97L135.35-60.97L135.35-60.97Q134.45-60.97 133.80-60.33L133.80-60.33L133.80-60.33Q133.16-59.68 133.16-58.78L133.16-58.78L133.16-2.19L133.16-2.19Q133.16-1.29 133.80-0.64L133.80-0.64L133.80-0.64Q134.45 0 135.35 0L135.35 0L161.47 0L161.47 0Q162.38 0 162.98-0.64L162.98-0.64L162.98-0.64Q163.62-1.29 163.62-2.19L163.62-2.19L163.62-6.53L163.62-6.53Q163.62-7.43 162.98-8.08L162.98-8.08L162.98-8.08Q162.38-8.72 161.47-8.72L161.47-8.72L144.03-8.72L144.03-8.72Q143.13-8.72 142.48-9.32L142.48-9.32L142.48-9.32Q141.88-9.97 141.88-10.87L141.88-10.87L141.88-23.93L141.88-23.93Q141.88-24.84 142.48-25.48L142.48-25.48L142.48-25.48Q143.13-26.13 144.03-26.13L144.03-26.13L157.09-26.13L157.09-26.13Q157.99-26.13 158.64-26.77L158.64-26.77L158.64-26.77Q159.28-27.41 159.28-28.32L159.28-28.32L159.28-32.66L159.28-32.66Q159.28-33.56 158.64-34.20L158.64-34.20L158.64-34.20Q157.99-34.85 157.09-34.85L157.09-34.85L144.03-34.85L144.03-34.85Q143.13-34.85 142.48-35.45L142.48-35.45L142.48-35.45Q141.88-36.09 141.88-37.00L141.88-37.00L141.88-50.06L141.88-50.06Q141.88-50.96 142.48-51.61L142.48-51.61L142.48-51.61Q143.13-52.25 144.03-52.25L144.03-52.25L161.47-52.25L161.47-52.25Q162.38-52.25 162.98-52.89L162.98-52.89L162.98-52.89Q163.62-53.54 163.62-54.44L163.62-54.44ZM184.79-52.25L191.32-52.25L191.32-52.25Q193.13-52.25 194.41-50.96L194.41-50.96L194.41-50.96Q195.70-49.71 195.70-47.91L195.70-47.91L195.70-39.19L195.70-39.19Q195.70-37.38 194.41-36.09L194.41-36.09L194.41-36.09Q193.13-34.85 191.32-34.85L191.32-34.85L184.79-34.85L184.79-34.85Q183.89-34.85 183.24-35.45L183.24-35.45L183.24-35.45Q182.64-36.09 182.64-37.00L182.64-37.00L182.64-50.06L182.64-50.06Q182.64-50.96 183.24-51.61L183.24-51.61L183.24-51.61Q183.89-52.25 184.79-52.25L184.79-52.25ZM205.46-3.01L195.53-26.55L195.53-26.55Q195.45-26.77 195.66-26.86L195.66-26.86L195.66-26.86Q199.53-28.23 201.93-31.58L201.93-31.58L201.93-31.58Q204.38-34.98 204.38-39.19L204.38-39.19L204.38-47.91L204.38-47.91Q204.38-53.32 200.56-57.15L200.56-57.15L200.56-57.15Q196.73-60.97 191.32-60.97L191.32-60.97L176.11-60.97L176.11-60.97Q175.21-60.97 174.56-60.33L174.56-60.33L174.56-60.33Q173.92-59.68 173.92-58.78L173.92-58.78L173.92-2.19L173.92-2.19Q173.92-1.29 174.56-0.64L174.56-0.64L174.56-0.64Q175.21 0 176.11 0L176.11 0L180.45 0L180.45 0Q181.35 0 182.00-0.64L182.00-0.64L182.00-0.64Q182.64-1.29 182.64-2.19L182.64-2.19L182.64-23.93L182.64-23.93Q182.64-24.84 183.24-25.48L183.24-25.48L183.24-25.48Q183.89-26.13 184.79-26.13L184.79-26.13L186.12-26.13L186.12-26.13Q186.25-26.13 186.34-26.00L186.34-26.00L196.69-1.33L196.69-1.33Q197.25 0 198.71 0L198.71 0L203.44 0L203.44 0Q204.60 0 205.24-0.99L205.24-0.99L205.24-0.99Q205.89-1.93 205.46-3.01L205.46-3.01ZM237.97-59.86L237.97-27.20L237.97-27.20Q237.97-27.03 237.80-26.98L237.80-26.98L237.80-26.98Q237.58-26.98 237.54-27.11L237.54-27.11L223.70-60.29L223.70-60.29Q223.45-60.97 222.71-60.97L222.71-60.97L217.26-60.97L217.26-60.97Q216.18-60.97 216.18-59.86L216.18-59.86L216.18-1.07L216.18-1.07Q216.18 0 217.26 0L217.26 0L223.79 0L223.79 0Q224.91 0 224.91-1.07L224.91-1.07L224.91-33.73L224.91-33.73Q224.91-33.90 225.08-33.95L225.08-33.95L225.08-33.95Q225.25-33.99 225.29-33.82L225.29-33.82L239.13-0.69L239.13-0.69Q239.39 0 240.12 0L240.12 0L245.57 0L245.57 0Q246.65 0 246.65-1.07L246.65-1.07L246.65-59.86L246.65-59.86Q246.65-60.97 245.57-60.97L245.57-60.97L239.04-60.97L239.04-60.97Q237.97-60.97 237.97-59.86L237.97-59.86ZM278.73-47.91L278.73-13.06L278.73-13.06Q278.73-11.26 277.44-9.97L277.44-9.97L277.44-9.97Q276.15-8.72 274.35-8.72L274.35-8.72L270.01-8.72L270.01-8.72Q268.20-8.72 266.91-9.97L266.91-9.97L266.91-9.97Q265.67-11.26 265.67-13.06L265.67-13.06L265.67-47.91L265.67-47.91Q265.67-49.71 266.91-50.96L266.91-50.96L266.91-50.96Q268.20-52.25 270.01-52.25L270.01-52.25L274.35-52.25L274.35-52.25Q276.15-52.25 277.44-50.96L277.44-50.96L277.44-50.96Q278.73-49.71 278.73-47.91L278.73-47.91ZM274.35-60.97L270.01-60.97L270.01-60.97Q264.59-60.97 260.77-57.11L260.77-57.11L260.77-57.11Q256.95-53.28 256.95-47.91L256.95-47.91L256.95-13.06L256.95-13.06Q256.95-7.65 260.77-3.82L260.77-3.82L260.77-3.82Q264.59 0 270.01 0L270.01 0L274.35 0L274.35 0Q279.76 0 283.59-3.82L283.59-3.82L283.59-3.82Q287.41-7.65 287.41-13.06L287.41-13.06L287.41-47.91L287.41-47.91Q287.41-53.28 283.59-57.11L283.59-57.11L283.59-57.11Q279.76-60.97 274.35-60.97L274.35-60.97ZM319.92-59.08L313.48-13.79L313.48-13.79Q313.43-13.62 313.26-13.62L313.26-13.62L313.26-13.62Q313.05-13.62 313.05-13.79L313.05-13.79L306.56-59.08L306.56-59.08Q306.30-60.97 304.41-60.97L304.41-60.97L300.03-60.97L300.03-60.97Q299.04-60.97 298.35-60.20L298.35-60.20L298.35-60.20Q297.71-59.47 297.88-58.48L297.88-58.48L305.96-1.85L305.96-1.85Q306.21 0 308.11 0L308.11 0L318.42 0L318.42 0Q320.31 0 320.57-1.85L320.57-1.85L328.64-58.48L328.64-58.48Q328.77-59.47 328.13-60.20L328.13-60.20L328.13-60.20Q327.48-60.97 326.50-60.97L326.50-60.97L322.11-60.97L322.11-60.97Q320.22-60.97 319.92-59.08L319.92-59.08ZM350.97-23.03L354.41-47.18L354.41-47.18Q354.41-47.35 354.63-47.35L354.63-47.35L354.63-47.35Q354.80-47.35 354.84-47.18L354.84-47.18L358.28-23.03L358.28-23.03Q358.36-22.52 358.02-22.13L358.02-22.13L358.02-22.13Q357.72-21.79 357.20-21.79L357.20-21.79L352.05-21.79L352.05-21.79Q351.53-21.79 351.19-22.13L351.19-22.13L351.19-22.13Q350.89-22.52 350.97-23.03L350.97-23.03ZM363.48 0L367.86 0L367.86 0Q368.85 0 369.49-0.73L369.49-0.73L369.49-0.73Q370.14-1.50 370.01-2.49L370.01-2.49L361.93-59.08L361.93-59.08Q361.67-60.97 359.78-60.97L359.78-60.97L349.47-60.97L349.47-60.97Q347.58-60.97 347.32-59.08L347.32-59.08L339.24-2.49L339.24-2.49Q339.07-1.50 339.71-0.73L339.71-0.73L339.71-0.73Q340.40 0 341.39 0L341.39 0L345.77 0L345.77 0Q347.66 0 347.92-1.85L347.92-1.85L349.51-13.06L359.70-13.06L361.29-1.85L361.29-1.85Q361.59 0 363.48 0L363.48 0ZM408.75-60.97L382.63-60.97L382.63-60.97Q381.72-60.97 381.08-60.33L381.08-60.33L381.08-60.33Q380.43-59.68 380.43-58.78L380.43-58.78L380.43-54.44L380.43-54.44Q380.43-53.54 381.08-52.89L381.08-52.89L381.08-52.89Q381.72-52.25 382.63-52.25L382.63-52.25L389.16-52.25L389.16-52.25Q390.06-52.25 390.66-51.61L390.66-51.61L390.66-51.61Q391.30-50.96 391.30-50.06L391.30-50.06L391.30-2.19L391.30-2.19Q391.30-1.29 391.95-0.64L391.95-0.64L391.95-0.64Q392.59 0 393.50 0L393.50 0L397.84 0L397.84 0Q398.74 0 399.38-0.64L399.38-0.64L399.38-0.64Q400.03-1.29 400.03-2.19L400.03-2.19L400.03-50.06L400.03-50.06Q400.03-50.96 400.67-51.61L400.67-51.61L400.67-51.61Q401.32-52.25 402.22-52.25L402.22-52.25L408.75-52.25L408.75-52.25Q409.65-52.25 410.25-52.89L410.25-52.89L410.25-52.89Q410.90-53.54 410.90-54.44L410.90-54.44L410.90-58.78L410.90-58.78Q410.90-59.68 410.25-60.33L410.25-60.33L410.25-60.33Q409.65-60.97 408.75-60.97L408.75-60.97ZM427.73 0L423.39 0L423.39 0Q422.48 0 421.84-0.64L421.84-0.64L421.84-0.64Q421.20-1.29 421.20-2.19L421.20-2.19L421.20-58.78L421.20-58.78Q421.20-59.68 421.84-60.33L421.84-60.33L421.84-60.33Q422.48-60.97 423.39-60.97L423.39-60.97L427.73-60.97L427.73-60.97Q428.63-60.97 429.27-60.33L429.27-60.33L429.27-60.33Q429.92-59.68 429.92-58.78L429.92-58.78L429.92-2.19L429.92-2.19Q429.92-1.29 429.27-0.64L429.27-0.64L429.27-0.64Q428.63 0 427.73 0L427.73 0ZM462-47.91L462-13.06L462-13.06Q462-11.26 460.71-9.97L460.71-9.97L460.71-9.97Q459.42-8.72 457.62-8.72L457.62-8.72L453.28-8.72L453.28-8.72Q451.47-8.72 450.18-9.97L450.18-9.97L450.18-9.97Q448.94-11.26 448.94-13.06L448.94-13.06L448.94-47.91L448.94-47.91Q448.94-49.71 450.18-50.96L450.18-50.96L450.18-50.96Q451.47-52.25 453.28-52.25L453.28-52.25L457.62-52.25L457.62-52.25Q459.42-52.25 460.71-50.96L460.71-50.96L460.71-50.96Q462-49.71 462-47.91L462-47.91ZM457.62-60.97L453.28-60.97L453.28-60.97Q447.86-60.97 444.04-57.11L444.04-57.11L444.04-57.11Q440.21-53.28 440.21-47.91L440.21-47.91L440.21-13.06L440.21-13.06Q440.21-7.65 444.04-3.82L444.04-3.82L444.04-3.82Q447.86 0 453.28 0L453.28 0L457.62 0L457.62 0Q463.03 0 466.86-3.82L466.86-3.82L466.86-3.82Q470.68-7.65 470.68-13.06L470.68-13.06L470.68-47.91L470.68-47.91Q470.68-53.28 466.86-57.11L466.86-57.11L466.86-57.11Q463.03-60.97 457.62-60.97L457.62-60.97ZM502.76-59.86L502.76-27.20L502.76-27.20Q502.76-27.03 502.59-26.98L502.59-26.98L502.59-26.98Q502.38-26.98 502.33-27.11L502.33-27.11L488.50-60.29L488.50-60.29Q488.24-60.97 487.51-60.97L487.51-60.97L482.05-60.97L482.05-60.97Q480.98-60.97 480.98-59.86L480.98-59.86L480.98-1.07L480.98-1.07Q480.98 0 482.05 0L482.05 0L488.58 0L488.58 0Q489.70 0 489.70-1.07L489.70-1.07L489.70-33.73L489.70-33.73Q489.70-33.90 489.87-33.95L489.87-33.95L489.87-33.95Q490.04-33.99 490.09-33.82L490.09-33.82L503.92-0.69L503.92-0.69Q504.18 0 504.91 0L504.91 0L510.37 0L510.37 0Q511.44 0 511.44-1.07L511.44-1.07L511.44-59.86L511.44-59.86Q511.44-60.97 510.37-60.97L510.37-60.97L503.84-60.97L503.84-60.97Q502.76-60.97 502.76-59.86L502.76-59.86ZM552.20-45.72L552.20-47.91L552.20-47.91Q552.20-53.32 548.38-57.15L548.38-57.15L548.38-57.15Q544.55-60.97 539.14-60.97L539.14-60.97L534.80-60.97L534.80-60.97Q529.39-60.97 525.56-57.15L525.56-57.15L525.56-57.15Q521.74-53.32 521.74-47.91L521.74-47.91L521.74-39.19L521.74-39.19Q521.74-33.77 525.56-29.95L525.56-29.95L525.56-29.95Q529.39-26.13 534.80-26.13L534.80-26.13L539.14-26.13L539.14-26.13Q540.95-26.13 542.23-24.84L542.23-24.84L542.23-24.84Q543.52-23.59 543.52-21.79L543.52-21.79L543.52-13.06L543.52-13.06Q543.52-11.26 542.23-9.97L542.23-9.97L542.23-9.97Q540.95-8.72 539.14-8.72L539.14-8.72L534.80-8.72L534.80-8.72Q533.00-8.72 531.71-9.97L531.71-9.97L531.71-9.97Q530.46-11.26 530.46-13.06L530.46-13.06L530.46-15.25L530.46-15.25Q530.46-16.16 529.82-16.76L529.82-16.76L529.82-16.76Q529.17-17.40 528.27-17.40L528.27-17.40L523.93-17.40L523.93-17.40Q523.03-17.40 522.38-16.76L522.38-16.76L522.38-16.76Q521.74-16.16 521.74-15.25L521.74-15.25L521.74-13.06L521.74-13.06Q521.74-7.65 525.56-3.82L525.56-3.82L525.56-3.82Q529.39 0 534.80 0L534.80 0L539.14 0L539.14 0Q544.55 0 548.38-3.82L548.38-3.82L548.38-3.82Q552.20-7.65 552.20-13.06L552.20-13.06L552.20-21.79L552.20-21.79Q552.20-27.20 548.38-31.02L548.38-31.02L548.38-31.02Q544.55-34.85 539.14-34.85L539.14-34.85L534.80-34.85L534.80-34.85Q533.00-34.85 531.71-36.09L531.71-36.09L531.71-36.09Q530.46-37.38 530.46-39.19L530.46-39.19L530.46-47.91L530.46-47.91Q530.46-49.71 531.71-50.96L531.71-50.96L531.71-50.96Q533.00-52.25 534.80-52.25L534.80-52.25L539.14-52.25L539.14-52.25Q540.95-52.25 542.23-50.96L542.23-50.96L542.23-50.96Q543.52-49.71 543.52-47.91L543.52-47.91L543.52-45.72L543.52-45.72Q543.52-44.82 544.13-44.17L544.13-44.17L544.13-44.17Q544.77-43.53 545.67-43.53L545.67-43.53L550.05-43.53L550.05-43.53Q550.96-43.53 551.56-44.17L551.56-44.17L551.56-44.17Q552.20-44.82 552.20-45.72L552.20-45.72Z"/></g><g id="" class="logo--name svgSloganText_1 sloganBox" transform="scale(1) translate(72.08001160621643,354.5000003814697)" fill="#25e874"><path d="M9.25-1.22L9.25-1.22Q6.25-1.22 4.11-3.35L4.11-3.35L4.11-3.35Q1.98-5.48 1.98-8.49L1.98-8.49L1.98-8.49Q1.98-11.50 4.11-13.63L4.11-13.63L4.11-13.63Q6.25-15.78 9.25-15.78L9.25-15.78L9.25-15.78Q12.26-15.78 14.40-13.63L14.40-13.63L14.40-13.63Q16.54-11.50 16.54-8.49L16.54-8.49L16.54-8.49Q16.54-5.48 14.40-3.35L14.40-3.35L14.40-3.35Q12.26-1.22 9.25-1.22L9.25-1.22ZM9.25-16.99L9.25-16.99Q5.74-16.99 3.25-14.50L3.25-14.50L3.25-14.50Q0.76-12.01 0.76-8.49L0.76-8.49L0.76-8.49Q0.76-4.98 3.25-2.49L3.25-2.49L3.25-2.49Q5.74 0 9.25 0L9.25 0L9.25 0Q12.77 0 15.26-2.49L15.26-2.49L15.26-2.49Q17.75-4.98 17.75-8.49L17.75-8.49L17.75-8.49Q17.75-12.01 15.26-14.50L15.26-14.50L15.26-14.50Q12.77-16.99 9.25-16.99L9.25-16.99ZM60.76-9.81L52.27-17.10L52.27 0L53.49 0L53.49-14.46L60.76-8.21L60.76 0L61.98 0L61.98-16.99L60.76-16.99L60.76-9.81ZM97.73-16.99L96.51-16.99L96.51 0L105 0L105-1.22L97.73-1.22L97.73-16.99ZM139.52-16.99L139.52 0L140.74 0L140.74-16.99L139.52-16.99ZM183.76-9.81L175.27-17.10L175.27 0L176.48 0L176.48-14.46L183.76-8.21L183.76 0L184.98 0L184.98-16.99L183.76-16.99L183.76-9.81ZM227.99-16.99L219.50-16.99L219.50 0L227.99 0L227.99-1.22L220.72-1.22L220.72-3.64L225.57-3.64L225.57-4.85L220.72-4.85L220.72-15.78L227.99-15.78L227.99-16.99ZM307.43-10.92L307.43-10.92Q306.42-10.92 305.71-11.63L305.71-11.63L305.71-11.63Q305.00-12.34 305.00-13.34L305.00-13.34L305.00-13.34Q305.00-14.35 305.71-15.07L305.71-15.07L305.71-15.07Q306.42-15.78 307.43-15.78L307.43-15.78L307.43-15.78Q308.43-15.78 309.14-15.07L309.14-15.07L309.14-15.07Q309.85-14.35 309.85-13.34L309.85-13.34L311.07-13.34L311.07-13.34Q311.07-14.85 310.00-15.92L310.00-15.92L310.00-15.92Q308.94-16.99 307.43-16.99L307.43-16.99L307.43-16.99Q305.93-16.99 304.85-15.92L304.85-15.92L304.85-15.92Q303.78-14.85 303.78-13.34L303.78-13.34L303.78-13.34Q303.78-11.84 304.85-10.78L304.85-10.78L304.85-10.78Q305.93-9.71 307.43-9.71L307.43-9.71L307.43-9.71Q309.18-9.71 310.43-8.47L310.43-8.47L310.43-8.47Q311.68-7.21 311.68-5.46L311.68-5.46L311.68-5.46Q311.68-3.71 310.43-2.46L310.43-2.46L310.43-2.46Q309.18-1.22 307.43-1.22L307.43-1.22L307.43-1.22Q305.67-1.22 304.43-2.46L304.43-2.46L304.43-2.46Q303.19-3.71 303.19-5.46L303.19-5.46L301.97-5.46L301.97-5.46Q301.97-3.20 303.57-1.60L303.57-1.60L303.57-1.60Q305.17 0 307.43 0L307.43 0L307.43 0Q309.69 0 311.29-1.60L311.29-1.60L311.29-1.60Q312.88-3.20 312.88-5.46L312.88-5.46L312.88-5.46Q312.88-7.72 311.29-9.32L311.29-9.32L311.29-9.32Q309.69-10.92 307.43-10.92L307.43-10.92ZM357.12-16.99L347.41-16.99L347.41-15.78L351.66-15.78L351.66 0L352.87 0L352.87-15.78L357.12-15.78L357.12-16.99ZM400.14-1.22L400.14-1.22Q397.13-1.22 395.00-3.35L395.00-3.35L395.00-3.35Q392.86-5.48 392.86-8.49L392.86-8.49L392.86-8.49Q392.86-11.50 395.00-13.63L395.00-13.63L395.00-13.63Q397.13-15.78 400.14-15.78L400.14-15.78L400.14-15.78Q403.15-15.78 405.28-13.63L405.28-13.63L405.28-13.63Q407.42-11.50 407.42-8.49L407.42-8.49L407.42-8.49Q407.42-5.48 405.28-3.35L405.28-3.35L405.28-3.35Q403.15-1.22 400.14-1.22L400.14-1.22ZM400.14-16.99L400.14-16.99Q396.62-16.99 394.13-14.50L394.13-14.50L394.13-14.50Q391.64-12.01 391.64-8.49L391.64-8.49L391.64-8.49Q391.64-4.98 394.13-2.49L394.13-2.49L394.13-2.49Q396.62 0 400.14 0L400.14 0L400.14 0Q403.65 0 406.14-2.49L406.14-2.49L406.14-2.49Q408.63-4.98 408.63-8.49L408.63-8.49L408.63-8.49Q408.63-12.01 406.14-14.50L406.14-14.50L406.14-14.50Q403.65-16.99 400.14-16.99L400.14-16.99ZM444.97-4.85L444.37-4.85L444.37-15.78L444.97-15.78L444.97-15.78Q447.23-15.78 448.83-14.17L448.83-14.17L448.83-14.17Q450.44-12.57 450.44-10.31L450.44-10.31L450.44-10.31Q450.44-8.06 448.83-6.45L448.83-6.45L448.83-6.45Q447.23-4.85 444.97-4.85L444.97-4.85ZM450.42 0L452.07 0L448.04-4.39L448.04-4.39Q449.68-5.24 450.64-6.80L450.64-6.80L450.64-6.80Q451.65-8.42 451.65-10.31L451.65-10.31L451.65-10.31Q451.65-13.08 449.69-15.03L449.69-15.03L449.69-15.03Q447.74-16.99 444.97-16.99L444.97-16.99L443.15-16.99L443.15 0L444.37 0L444.37-3.64L444.97-3.64L444.97-3.64Q445.93-3.64 446.83-3.91L446.83-3.91L450.42 0ZM495.08-16.99L486.59-16.99L486.59 0L495.08 0L495.08-1.22L487.81-1.22L487.81-3.64L492.66-3.64L492.66-4.85L487.81-4.85L487.81-15.78L495.08-15.78L495.08-16.99Z"/></g></g></g></g></svg>